<svg width="99" height="22" viewBox="0 0 99 22" fill="none" xmlns="http://www.w3.org/2000/svg">
<path d="M0.669156 4.32C0.925156 3.504 1.31716 2.808 1.84516 2.232C2.38916 1.64 3.00516 1.184 3.69316 0.863999C4.39716 0.527999 5.13316 0.328 5.90116 0.263999C6.68516 0.199999 7.44516 0.287999 8.18116 0.527999C9.12516 0.831999 9.89316 1.368 10.4852 2.136C11.0932 2.904 11.4132 3.912 11.4452 5.16C11.5092 6.264 11.3732 7.296 11.0372 8.256C10.7172 9.216 10.2532 10.072 9.64516 10.824C9.03716 11.576 8.31716 12.224 7.48516 12.768C6.65316 13.296 5.76516 13.68 4.82116 13.92C4.80516 14.832 4.78916 15.696 4.77316 16.512C4.77316 17.328 4.75716 18.184 4.72516 19.08C4.48516 19.112 4.18116 19.12 3.81316 19.104C3.46116 19.104 3.16516 19.088 2.92516 19.056L3.09316 3.288C3.36516 2.968 3.62916 2.744 3.88516 2.616C4.15716 2.472 4.49316 2.416 4.89316 2.448C4.92516 3.36 4.94116 4.248 4.94116 5.112C4.94116 5.96 4.93316 6.808 4.91716 7.656C4.91716 8.488 4.90916 9.328 4.89316 10.176C4.89316 11.024 4.89316 11.896 4.89316 12.792C5.61316 12.552 6.26116 12.192 6.83716 11.712C7.41316 11.216 7.90116 10.656 8.30116 10.032C8.70116 9.392 9.00516 8.704 9.21316 7.968C9.42116 7.232 9.51716 6.488 9.50116 5.736C9.48516 4.968 9.32516 4.224 9.02116 3.504C8.73316 2.784 8.26116 2.192 7.60516 1.728C7.06116 1.424 6.48516 1.264 5.87716 1.248C5.26916 1.216 4.68516 1.32 4.12516 1.56C3.58116 1.8 3.10116 2.16 2.68516 2.64C2.28516 3.104 2.02116 3.68 1.89316 4.368C1.78116 4.96 1.76516 5.504 1.84516 6C1.92516 6.496 2.17316 6.976 2.58916 7.44C2.41316 7.616 2.18116 7.848 1.89316 8.136C1.62116 8.424 1.39716 8.656 1.22116 8.832C0.933156 8.608 0.725156 8.312 0.597156 7.944C0.469156 7.56 0.389156 7.16 0.357156 6.744C0.341156 6.312 0.365156 5.888 0.429156 5.472C0.493156 5.04 0.573156 4.656 0.669156 4.32ZM12.8818 6.192C13.2018 6.08 13.4498 6.12 13.6258 6.312C13.8018 6.488 13.9058 6.72 13.9378 7.008C13.9698 7.28 13.9218 7.544 13.7938 7.8C13.6658 8.056 13.4498 8.192 13.1458 8.208C12.8738 8.208 12.6658 8.12 12.5218 7.944C12.3778 7.768 12.2978 7.568 12.2818 7.344C12.2498 7.104 12.2898 6.88 12.4018 6.672C12.4978 6.448 12.6578 6.288 12.8818 6.192ZM12.1378 9.792C12.1378 9.552 12.1938 9.384 12.3058 9.288C12.4018 9.176 12.5218 9.104 12.6658 9.072C12.8258 9.024 12.9938 9.016 13.1698 9.048C13.3618 9.064 13.5378 9.08 13.6978 9.096V16.8C13.9378 16.528 14.1858 16.192 14.4418 15.792C14.6978 15.376 14.9378 14.952 15.1618 14.52C15.3858 14.088 15.5778 13.68 15.7378 13.296C15.9138 12.896 16.0338 12.576 16.0978 12.336L16.8418 12.36C16.7458 12.776 16.5858 13.256 16.3618 13.8C16.1378 14.344 15.8978 14.872 15.6418 15.384C15.3858 15.896 15.1298 16.36 14.8738 16.776C14.6178 17.176 14.4018 17.448 14.2258 17.592C14.0658 17.784 13.8658 17.92 13.6258 18C13.4018 18.08 13.1778 18.104 12.9538 18.072C12.7458 18.056 12.5618 17.984 12.4018 17.856C12.2418 17.712 12.1538 17.504 12.1378 17.232C12.1058 16.784 12.0898 16.248 12.0898 15.624C12.0738 14.984 12.0658 14.32 12.0658 13.632C12.0658 12.944 12.0738 12.264 12.0898 11.592C12.1058 10.92 12.1218 10.32 12.1378 9.792ZM15.5797 9.408C15.7077 9.328 15.8517 9.272 16.0117 9.24C16.1877 9.192 16.3557 9.168 16.5157 9.168C16.6757 9.168 16.8197 9.192 16.9477 9.24C17.0917 9.288 17.1957 9.352 17.2597 9.432L17.2357 10.392C17.4597 10.12 17.7317 9.856 18.0517 9.6C18.3877 9.344 18.7397 9.184 19.1077 9.12C19.4117 9.072 19.6677 9.096 19.8757 9.192C20.0837 9.288 20.2517 9.424 20.3797 9.6C20.5077 9.776 20.6037 9.984 20.6677 10.224C20.7317 10.448 20.7717 10.664 20.7877 10.872C20.8837 11.912 20.9077 12.96 20.8597 14.016C20.8117 15.056 20.8277 16.096 20.9077 17.136C21.0837 17.024 21.2517 16.84 21.4117 16.584C21.5717 16.312 21.7157 16 21.8437 15.648C21.9877 15.296 22.1157 14.936 22.2277 14.568C22.3557 14.184 22.4677 13.816 22.5637 13.464C22.6757 13.112 22.7637 12.808 22.8277 12.552C22.8917 12.28 22.9477 12.088 22.9957 11.976L23.7157 12C23.5877 12.416 23.4357 12.92 23.2597 13.512C23.0997 14.104 22.9237 14.688 22.7317 15.264C22.5397 15.84 22.3397 16.36 22.1317 16.824C21.9397 17.288 21.7477 17.6 21.5557 17.76C21.4117 17.904 21.2277 18.016 21.0037 18.096C20.7797 18.176 20.5557 18.216 20.3317 18.216C20.1237 18.232 19.9317 18.2 19.7557 18.12C19.5797 18.04 19.4757 17.896 19.4437 17.688C19.3317 17.288 19.2597 16.824 19.2277 16.296C19.1957 15.752 19.1717 15.208 19.1557 14.664C19.1557 14.104 19.1637 13.56 19.1797 13.032C19.1957 12.488 19.1957 12.008 19.1797 11.592C19.1797 11.176 19.1557 10.848 19.1077 10.608C19.0597 10.368 18.9717 10.264 18.8437 10.296C18.5557 10.424 18.2437 10.672 17.9077 11.04C17.5877 11.408 17.3717 11.904 17.2597 12.528C17.2117 13.008 17.1797 13.536 17.1637 14.112C17.1477 14.688 17.1397 15.24 17.1397 15.768C17.1557 16.296 17.1637 16.768 17.1637 17.184C17.1637 17.584 17.1557 17.856 17.1397 18C16.9157 18.096 16.6517 18.136 16.3477 18.12C16.0437 18.104 15.7797 18.088 15.5557 18.072L15.5797 9.408ZM24.4389 1.488C24.6469 1.376 24.8709 1.32 25.1109 1.32C25.3669 1.304 25.5909 1.344 25.7829 1.44C25.9909 1.536 26.1589 1.688 26.2869 1.896C26.4309 2.104 26.4949 2.36 26.4789 2.664C26.4949 3.064 26.4309 3.544 26.2869 4.104C26.1589 4.648 25.9749 5.216 25.7349 5.808C25.4949 6.384 25.2229 6.944 24.9189 7.488C24.6149 8.016 24.3029 8.472 23.9829 8.856L23.9349 10.248C24.0629 9.944 24.2549 9.664 24.5109 9.408C24.7669 9.136 25.0469 8.928 25.3509 8.784C25.6549 8.64 25.9669 8.584 26.2869 8.616C26.6069 8.632 26.9029 8.792 27.1749 9.096C27.5429 9.528 27.7269 10.032 27.7269 10.608C27.7269 11.184 27.6069 11.744 27.3669 12.288C27.1269 12.832 26.7909 13.32 26.3589 13.752C25.9429 14.184 25.4949 14.472 25.0149 14.616C25.1109 14.84 25.2149 15.064 25.3269 15.288C25.4549 15.512 25.5989 15.72 25.7589 15.912C25.9189 16.104 26.0949 16.272 26.2869 16.416C26.4789 16.56 26.7029 16.664 26.9589 16.728C27.1669 16.776 27.3829 16.728 27.6069 16.584C27.8309 16.424 28.0389 16.216 28.2309 15.96C28.4389 15.688 28.6389 15.384 28.8309 15.048C29.0229 14.696 29.1909 14.36 29.3349 14.04C29.4949 13.704 29.6229 13.392 29.7189 13.104C29.8309 12.816 29.9109 12.592 29.9589 12.432L30.7269 12.408C30.5349 13.064 30.3029 13.704 30.0309 14.328C29.7749 14.952 29.4949 15.52 29.1909 16.032C28.8869 16.544 28.5669 16.976 28.2309 17.328C27.9109 17.68 27.5989 17.912 27.2949 18.024C26.9109 18.216 26.5429 18.264 26.1909 18.168C25.8549 18.088 25.5349 17.928 25.2309 17.688C24.9429 17.448 24.6789 17.16 24.4389 16.824C24.1989 16.472 23.9989 16.136 23.8389 15.816L23.8149 17.76C23.8309 17.888 23.7749 17.976 23.6469 18.024C23.5349 18.088 23.3909 18.128 23.2149 18.144C23.0389 18.16 22.8629 18.16 22.6869 18.144C22.5109 18.128 22.3829 18.112 22.3029 18.096C22.2549 16.208 22.2469 14.328 22.2789 12.456C22.2949 10.584 22.3429 8.704 22.4229 6.816C22.4389 6.4 22.4789 5.928 22.5429 5.4C22.6069 4.856 22.7189 4.336 22.8789 3.84C23.0229 3.328 23.2149 2.864 23.4549 2.448C23.7109 2.016 24.0389 1.696 24.4389 1.488ZM24.8229 2.28C24.6309 2.488 24.4789 2.816 24.3669 3.264C24.2709 3.712 24.1909 4.192 24.1269 4.704C24.0789 5.216 24.0469 5.728 24.0309 6.24C24.0149 6.736 24.0069 7.136 24.0069 7.44C24.2149 7.056 24.4229 6.656 24.6309 6.24C24.8389 5.808 25.0149 5.384 25.1589 4.968C25.3189 4.536 25.4469 4.128 25.5429 3.744C25.6549 3.344 25.7109 2.984 25.7109 2.664C25.6949 2.424 25.5829 2.256 25.3749 2.16C25.1829 2.064 24.9989 2.104 24.8229 2.28ZM23.9109 14.064C24.4069 14.032 24.8389 13.84 25.2069 13.488C25.5909 13.12 25.8709 12.704 26.0469 12.24C26.2389 11.776 26.3189 11.328 26.2869 10.896C26.2709 10.448 26.1109 10.12 25.8069 9.912C25.4549 9.8 25.1509 9.896 24.8949 10.2C24.6549 10.488 24.4629 10.864 24.3189 11.328C24.1749 11.776 24.0709 12.264 24.0069 12.792C23.9429 13.304 23.9109 13.728 23.9109 14.064ZM36.1757 2.208C36.6717 1.712 37.2557 1.344 37.9277 1.104C38.6157 0.863999 39.3037 0.759999 39.9917 0.792C40.6957 0.823999 41.3597 0.999999 41.9837 1.32C42.6237 1.64 43.1517 2.112 43.5677 2.736C43.8397 3.12 44.0157 3.568 44.0957 4.08C44.1757 4.576 44.1757 5.088 44.0957 5.616C44.0157 6.128 43.8717 6.616 43.6637 7.08C43.4717 7.528 43.2397 7.88 42.9677 8.136C43.3837 8.024 43.7837 8.024 44.1677 8.136C44.5677 8.248 44.9197 8.432 45.2237 8.688C45.5437 8.944 45.8077 9.256 46.0157 9.624C46.2397 9.992 46.3757 10.392 46.4237 10.824C46.6157 11.704 46.6557 12.568 46.5437 13.416C46.4317 14.248 46.1917 15 45.8237 15.672C45.4557 16.328 44.9597 16.88 44.3357 17.328C43.7117 17.76 42.9837 18.016 42.1517 18.096C41.6397 18.208 41.0237 18.264 40.3037 18.264C39.5837 18.264 38.8637 18.264 38.1437 18.264C37.4237 18.28 36.7437 18.328 36.1037 18.408C35.4637 18.504 34.9677 18.696 34.6157 18.984C34.6797 18.616 34.8317 18.312 35.0717 18.072C35.3117 17.832 35.5757 17.64 35.8637 17.496C36.1677 17.352 36.4717 17.256 36.7757 17.208C37.0957 17.144 37.3597 17.104 37.5677 17.088C37.5517 16.304 37.5437 15.456 37.5437 14.544C37.5597 13.632 37.5757 12.712 37.5917 11.784C37.6237 10.84 37.6477 9.912 37.6637 9C37.6797 8.072 37.6957 7.208 37.7117 6.408C37.7277 5.608 37.7357 4.888 37.7357 4.248C37.7357 3.608 37.7197 3.096 37.6877 2.712C37.7837 2.632 37.9357 2.52 38.1437 2.376C38.3517 2.232 38.5357 2.096 38.6957 1.968C38.8717 1.824 38.9837 1.72 39.0317 1.656C39.0957 1.576 39.0397 1.576 38.8637 1.656C38.5117 1.752 38.1517 1.912 37.7837 2.136C37.4317 2.344 37.0957 2.592 36.7757 2.88C36.4717 3.152 36.1917 3.456 35.9357 3.792C35.6957 4.128 35.5037 4.464 35.3597 4.8C35.0877 5.488 35.0477 6.168 35.2397 6.84C35.4317 7.496 35.8877 7.992 36.6077 8.328L35.9117 10.224C35.4957 10.112 35.1117 9.872 34.7597 9.504C34.4237 9.12 34.1917 8.728 34.0637 8.328C33.9037 7.752 33.8477 7.184 33.8957 6.624C33.9437 6.048 34.0637 5.496 34.2557 4.968C34.4637 4.424 34.7277 3.92 35.0477 3.456C35.3837 2.992 35.7597 2.576 36.1757 2.208ZM39.2477 1.608C39.4397 2.872 39.5277 4.232 39.5117 5.688C39.5117 7.128 39.4957 8.672 39.4637 10.32C39.9277 10 40.3437 9.624 40.7117 9.192C41.0797 8.76 41.3917 8.296 41.6477 7.8C41.9037 7.288 42.0877 6.752 42.1997 6.192C42.3117 5.616 42.3357 5.016 42.2717 4.392C42.2077 3.912 42.0957 3.48 41.9357 3.096C41.7917 2.712 41.5917 2.4 41.3357 2.16C41.0957 1.904 40.7997 1.728 40.4477 1.632C40.0957 1.52 39.6957 1.512 39.2477 1.608ZM39.3917 11.544C39.3277 12.504 39.2877 13.424 39.2717 14.304C39.2717 15.168 39.2797 16.08 39.2957 17.04C40.2717 17.056 41.1037 16.976 41.7917 16.8C42.4797 16.608 43.0317 16.32 43.4477 15.936C43.8797 15.552 44.1917 15.064 44.3837 14.472C44.5917 13.864 44.7117 13.144 44.7437 12.312C44.7597 12.008 44.7517 11.688 44.7197 11.352C44.6877 11.016 44.6157 10.704 44.5037 10.416C44.3917 10.128 44.2317 9.888 44.0237 9.696C43.8157 9.488 43.5597 9.368 43.2557 9.336C42.8557 9.336 42.4877 9.416 42.1517 9.576C41.8157 9.72 41.4957 9.904 41.1917 10.128C40.8877 10.352 40.5837 10.592 40.2797 10.848C39.9917 11.104 39.6957 11.336 39.3917 11.544ZM51.0285 8.688C51.2365 8.656 51.5085 8.64 51.8445 8.64C52.1965 8.624 52.4685 8.616 52.6605 8.616L52.4925 18.552C52.4605 19.56 52.3005 20.296 52.0125 20.76C51.7245 21.224 51.2605 21.48 50.6205 21.528C50.1245 21.56 49.7165 21.536 49.3965 21.456C49.0925 21.392 48.8525 21.28 48.6765 21.12C48.5005 20.96 48.3805 20.752 48.3165 20.496C48.2685 20.256 48.2605 19.968 48.2925 19.632L49.9005 18.864C49.8205 19.024 49.7645 19.208 49.7325 19.416C49.7005 19.64 49.7005 19.848 49.7325 20.04C49.7645 20.232 49.8285 20.4 49.9245 20.544C50.0365 20.688 50.2045 20.76 50.4285 20.76C50.5885 20.76 50.7005 20.624 50.7645 20.352C50.8445 20.096 50.8925 19.776 50.9085 19.392C50.9245 19.008 50.9245 18.6 50.9085 18.168C50.9085 17.736 50.9245 17.352 50.9565 17.016C50.7325 17.336 50.4845 17.616 50.2125 17.856C49.9565 18.096 49.5965 18.184 49.1325 18.12C48.6685 18.072 48.3085 17.864 48.0525 17.496C47.7965 17.112 47.6525 16.712 47.6205 16.296C47.5405 15.672 47.5005 15.056 47.5005 14.448C47.4845 13.824 47.4925 13.208 47.5245 12.6C47.5405 11.976 47.5725 11.36 47.6205 10.752C47.6525 10.128 47.6765 9.504 47.6925 8.88C47.9485 8.848 48.2045 8.848 48.4605 8.88C48.7325 8.896 48.9965 8.904 49.2525 8.904L49.1085 16.152C49.1245 16.344 49.1565 16.52 49.2045 16.68C49.2525 16.84 49.3165 16.96 49.3965 17.04C49.4925 17.104 49.5885 17.12 49.6845 17.088C49.7965 17.056 49.9245 16.952 50.0685 16.776C50.3725 16.424 50.5965 15.928 50.7405 15.288C50.8845 14.632 50.9725 13.928 51.0045 13.176C51.0525 12.408 51.0685 11.632 51.0525 10.848C51.0365 10.064 51.0285 9.344 51.0285 8.688ZM63.0495 1.056C63.9615 0.927999 64.8095 0.831999 65.5935 0.767999C66.3775 0.687999 67.1455 0.631999 67.8975 0.599999C68.6655 0.551999 69.4335 0.519999 70.2015 0.503999C70.9855 0.472 71.8095 0.44 72.6735 0.407999L71.3775 2.016C70.3695 1.936 69.4175 1.936 68.5215 2.016C67.6255 2.08 66.6575 2.136 65.6175 2.184C65.4095 3.608 65.2495 5 65.1375 6.36C65.0415 7.72 64.9695 9.08 64.9215 10.44C64.8895 11.784 64.8735 13.136 64.8735 14.496C64.8735 15.856 64.8815 17.232 64.8975 18.624C64.5775 18.8 64.2575 18.944 63.9375 19.056C63.6175 19.184 63.2735 19.232 62.9055 19.2C62.9375 16.544 63.0015 13.784 63.0975 10.92C63.1935 8.056 63.4495 5.144 63.8655 2.184C63.4815 2.2 63.0815 2.232 62.6655 2.28C62.2655 2.312 61.8735 2.384 61.4895 2.496C61.1055 2.592 60.7375 2.736 60.3855 2.928C60.0495 3.104 59.7375 3.336 59.4495 3.624C59.3535 3.848 59.3455 4.032 59.4255 4.176C59.5055 4.32 59.6255 4.448 59.7855 4.56C59.9455 4.656 60.1215 4.736 60.3135 4.8C60.5215 4.848 60.7055 4.888 60.8655 4.92C60.6575 5.16 60.4575 5.392 60.2655 5.616C60.0735 5.84 59.8815 6.072 59.6895 6.312C59.4815 6.248 59.2735 6.152 59.0655 6.024C58.8575 5.896 58.6735 5.752 58.5135 5.592C58.3535 5.416 58.2415 5.224 58.1775 5.016C58.1135 4.792 58.1215 4.56 58.2015 4.32C58.6175 3.312 59.2495 2.568 60.0975 2.088C60.9615 1.592 61.9455 1.248 63.0495 1.056ZM67.8275 13.032C67.6515 12.936 67.5155 12.768 67.4195 12.528C67.3075 12.272 67.2355 11.984 67.2035 11.664C67.1555 11.328 67.1395 10.976 67.1555 10.608C67.1715 10.24 67.2195 9.896 67.2995 9.576C67.3635 9.256 67.4675 8.984 67.6115 8.76C67.7395 8.52 67.8995 8.36 68.0915 8.28C68.3475 8.184 68.5315 8.24 68.6435 8.448C68.7555 8.656 68.8115 8.944 68.8115 9.312C68.8115 9.68 68.7715 10.096 68.6915 10.56C68.6115 11.008 68.5155 11.424 68.4035 11.808C68.8515 11.392 69.1875 10.936 69.4115 10.44C69.6355 9.944 69.7875 9.52 69.8675 9.168C69.9475 9.088 70.0835 9.056 70.2755 9.072C70.4835 9.088 70.6915 9.136 70.8995 9.216C71.1235 9.28 71.3155 9.368 71.4755 9.48C71.6515 9.592 71.7395 9.704 71.7395 9.816C71.5315 10.856 71.3635 11.92 71.2355 13.008C71.1075 14.08 71.0595 15.152 71.0915 16.224C71.1075 16.48 71.1395 16.72 71.1875 16.944C71.2515 17.152 71.3555 17.28 71.4995 17.328C71.6435 17.264 71.8355 17.04 72.0755 16.656C72.3315 16.272 72.5875 15.816 72.8435 15.288C73.1155 14.76 73.3715 14.2 73.6115 13.608C73.8515 13.016 74.0435 12.48 74.1875 12C74.2675 12 74.3875 12.008 74.5475 12.024C74.7235 12.04 74.8515 12.04 74.9315 12.024C74.7875 12.536 74.6035 13.096 74.3795 13.704C74.1715 14.312 73.9395 14.904 73.6835 15.48C73.4275 16.04 73.1555 16.552 72.8675 17.016C72.5955 17.48 72.3155 17.816 72.0275 18.024C71.7875 18.184 71.5315 18.264 71.2595 18.264C70.9875 18.28 70.7315 18.232 70.4915 18.12C70.2515 18.024 70.0435 17.864 69.8675 17.64C69.7075 17.416 69.6115 17.144 69.5795 16.824C69.4675 16.008 69.4595 15.088 69.5555 14.064C69.6515 13.024 69.7795 12.016 69.9395 11.04C69.8755 11.216 69.7635 11.44 69.6035 11.712C69.4595 11.984 69.2835 12.232 69.0755 12.456C68.8835 12.68 68.6755 12.856 68.4515 12.984C68.2275 13.112 68.0195 13.128 67.8275 13.032ZM74.499 6.192C74.819 6.08 75.067 6.12 75.243 6.312C75.419 6.488 75.523 6.72 75.555 7.008C75.587 7.28 75.539 7.544 75.411 7.8C75.283 8.056 75.067 8.192 74.763 8.208C74.491 8.208 74.283 8.12 74.139 7.944C73.995 7.768 73.915 7.568 73.899 7.344C73.867 7.104 73.907 6.88 74.019 6.672C74.115 6.448 74.275 6.288 74.499 6.192ZM73.755 9.792C73.755 9.552 73.811 9.384 73.923 9.288C74.019 9.176 74.139 9.104 74.283 9.072C74.443 9.024 74.611 9.016 74.787 9.048C74.979 9.064 75.155 9.08 75.315 9.096V16.8C75.555 16.528 75.803 16.192 76.059 15.792C76.315 15.376 76.555 14.952 76.779 14.52C77.003 14.088 77.195 13.68 77.355 13.296C77.531 12.896 77.651 12.576 77.715 12.336L78.459 12.36C78.363 12.776 78.203 13.256 77.979 13.8C77.755 14.344 77.515 14.872 77.259 15.384C77.003 15.896 76.747 16.36 76.491 16.776C76.235 17.176 76.019 17.448 75.843 17.592C75.683 17.784 75.483 17.92 75.243 18C75.019 18.08 74.795 18.104 74.571 18.072C74.363 18.056 74.179 17.984 74.019 17.856C73.859 17.712 73.771 17.504 73.755 17.232C73.723 16.784 73.707 16.248 73.707 15.624C73.691 14.984 73.683 14.32 73.683 13.632C73.683 12.944 73.691 12.264 73.707 11.592C73.723 10.92 73.739 10.32 73.755 9.792ZM77.3889 11.472C77.2769 11.04 77.2609 10.616 77.3409 10.2C77.4049 9.784 77.5409 9.424 77.7489 9.12C77.9729 8.8 78.2529 8.552 78.5889 8.376C78.9249 8.184 79.3009 8.088 79.7169 8.088C80.2929 8.088 80.7409 8.248 81.0609 8.568C81.3969 8.872 81.6049 9.232 81.6849 9.648C81.7809 10.048 81.7489 10.44 81.5889 10.824C81.4449 11.192 81.1889 11.432 80.8209 11.544C80.5809 11.624 80.3649 11.624 80.1729 11.544C79.9809 11.464 79.8209 11.336 79.6929 11.16C79.5649 10.984 79.4769 10.776 79.4289 10.536C79.3809 10.296 79.3729 10.064 79.4049 9.84L80.3169 9.816C80.3329 10.104 80.3809 10.376 80.4609 10.632C80.5409 10.872 80.6449 10.984 80.7729 10.968C80.8369 10.84 80.8849 10.68 80.9169 10.488C80.9489 10.28 80.9409 10.08 80.8929 9.888C80.8449 9.68 80.7489 9.488 80.6049 9.312C80.4769 9.136 80.2849 9.016 80.0289 8.952C79.7089 8.888 79.4049 8.976 79.1169 9.216C78.8449 9.456 78.7409 9.792 78.8049 10.224C78.8209 10.512 78.8929 10.8 79.0209 11.088C79.1649 11.36 79.3249 11.624 79.5009 11.88C79.6929 12.136 79.8929 12.392 80.1009 12.648C80.3089 12.888 80.5089 13.128 80.7009 13.368C81.1169 13.88 81.4369 14.44 81.6609 15.048C81.8849 15.64 81.8689 16.312 81.6129 17.064C81.4689 17.464 81.2129 17.76 80.8449 17.952C80.4769 18.144 80.0769 18.256 79.6449 18.288C79.2289 18.32 78.8209 18.272 78.4209 18.144C78.0209 18.032 77.7169 17.864 77.5089 17.64C77.2209 17.304 77.1089 16.896 77.1729 16.416C77.2369 15.936 77.4689 15.512 77.8689 15.144L79.2129 15.696C79.0209 15.808 78.8449 15.952 78.6849 16.128C78.5409 16.288 78.4369 16.456 78.3729 16.632C78.3249 16.792 78.3249 16.944 78.3729 17.088C78.4369 17.216 78.5729 17.296 78.7809 17.328C79.2449 17.376 79.6129 17.248 79.8849 16.944C80.1569 16.64 80.2209 16.256 80.0769 15.792C79.9489 15.408 79.7569 15.04 79.5009 14.688C79.2449 14.336 78.9729 13.992 78.6849 13.656C78.4129 13.304 78.1489 12.952 77.8929 12.6C77.6529 12.248 77.4849 11.872 77.3889 11.472ZM84.7693 2.064C84.9933 1.952 85.2333 1.896 85.4893 1.896C85.7453 1.88 85.9853 1.92 86.2093 2.016C86.4333 2.096 86.6333 2.232 86.8093 2.424C86.9853 2.616 87.0973 2.84 87.1453 3.096C87.2893 3.624 87.2973 4.168 87.1693 4.728C87.0413 5.272 86.8333 5.808 86.5453 6.336C86.2733 6.848 85.9453 7.328 85.5613 7.776C85.1773 8.224 84.7933 8.592 84.4093 8.88L84.3373 10.368C84.4653 10.096 84.6493 9.856 84.8893 9.648C85.1453 9.424 85.4173 9.272 85.7053 9.192C86.0093 9.096 86.3053 9.088 86.5933 9.168C86.8813 9.248 87.1213 9.448 87.3133 9.768C87.4413 10.008 87.5293 10.336 87.5773 10.752C87.6413 11.152 87.6733 11.6 87.6733 12.096C87.6893 12.576 87.6813 13.08 87.6493 13.608C87.6333 14.136 87.6173 14.648 87.6013 15.144C87.5853 15.64 87.5773 16.104 87.5773 16.536C87.5933 16.952 87.6413 17.288 87.7213 17.544C88.1053 17.368 88.4573 17.04 88.7773 16.56C89.0973 16.064 89.3773 15.544 89.6173 15C89.8573 14.44 90.0493 13.912 90.1933 13.416C90.3533 12.904 90.4573 12.544 90.5053 12.336L91.1293 12.408C91.0493 13.016 90.9213 13.608 90.7453 14.184C90.5693 14.76 90.3693 15.296 90.1453 15.792C89.9373 16.272 89.7133 16.696 89.4733 17.064C89.2493 17.416 89.0413 17.672 88.8493 17.832C88.6093 18.056 88.3533 18.216 88.0813 18.312C87.8093 18.424 87.5453 18.464 87.2893 18.432C87.0333 18.416 86.8093 18.336 86.6173 18.192C86.4253 18.048 86.2893 17.84 86.2093 17.568C86.1133 17.168 86.0413 16.72 85.9933 16.224C85.9613 15.728 85.9453 15.224 85.9453 14.712C85.9453 14.184 85.9533 13.672 85.9693 13.176C86.0013 12.664 86.0173 12.208 86.0173 11.808C86.0333 11.392 86.0333 11.048 86.0173 10.776C86.0013 10.488 85.9613 10.312 85.8973 10.248C85.7053 10.232 85.5293 10.272 85.3693 10.368C85.2093 10.464 85.0653 10.592 84.9373 10.752C84.8093 10.912 84.6893 11.088 84.5773 11.28C84.4813 11.472 84.3853 11.648 84.2893 11.808L84.0973 17.616C84.0813 17.792 84.0013 17.92 83.8573 18C83.7293 18.064 83.5693 18.104 83.3773 18.12C83.2013 18.152 83.0253 18.16 82.8493 18.144C82.6573 18.128 82.5053 18.12 82.3933 18.12C82.4093 17.16 82.4333 16.248 82.4653 15.384C82.4813 14.52 82.5053 13.664 82.5373 12.816C82.5533 11.968 82.5693 11.112 82.5853 10.248C82.6013 9.384 82.6173 8.472 82.6333 7.512C82.6493 7.112 82.6973 6.64 82.7773 6.096C82.8573 5.552 82.9773 5.024 83.1373 4.512C83.2973 3.984 83.5053 3.504 83.7613 3.072C84.0333 2.624 84.3693 2.288 84.7693 2.064ZM85.0573 3.12C84.9133 3.392 84.8013 3.728 84.7213 4.128C84.6413 4.512 84.5773 4.92 84.5293 5.352C84.4973 5.768 84.4733 6.184 84.4573 6.6C84.4573 7 84.4493 7.352 84.4333 7.656C85.0413 7.096 85.5293 6.416 85.8973 5.616C86.2813 4.816 86.4573 4.056 86.4253 3.336C86.4093 3.112 86.3373 2.952 86.2093 2.856C86.0973 2.744 85.9693 2.688 85.8253 2.688C85.6813 2.672 85.5373 2.704 85.3933 2.784C85.2493 2.864 85.1373 2.976 85.0573 3.12ZM90.8332 9.912C91.0092 9.672 91.2172 9.464 91.4572 9.288C91.6972 9.096 91.9532 8.952 92.2252 8.856C92.4972 8.76 92.7692 8.728 93.0412 8.76C93.3292 8.776 93.6012 8.864 93.8572 9.024C93.8732 8.896 93.9372 8.808 94.0492 8.76C94.1772 8.696 94.3132 8.664 94.4572 8.664C94.6172 8.664 94.7852 8.68 94.9612 8.712C95.1372 8.728 95.2892 8.744 95.4172 8.76L95.3932 16.728C95.6332 16.488 95.8732 16.192 96.1132 15.84C96.3532 15.472 96.5772 15.096 96.7852 14.712C96.9932 14.312 97.1772 13.92 97.3372 13.536C97.5132 13.136 97.6652 12.784 97.7932 12.48C97.8572 12.464 97.9772 12.464 98.1532 12.48C98.3452 12.48 98.4732 12.48 98.5372 12.48C98.4412 12.896 98.2812 13.368 98.0572 13.896C97.8332 14.408 97.5772 14.92 97.2892 15.432C97.0012 15.944 96.6972 16.424 96.3772 16.872C96.0572 17.32 95.7452 17.688 95.4412 17.976C95.2652 18.104 95.0972 18.168 94.9372 18.168C94.7932 18.184 94.6572 18.16 94.5292 18.096C94.4172 18.032 94.3052 17.936 94.1932 17.808C94.0972 17.68 94.0092 17.552 93.9292 17.424C93.7372 17.648 93.4892 17.824 93.1852 17.952C92.8812 18.064 92.5612 18.12 92.2252 18.12C91.9052 18.136 91.5932 18.088 91.2892 17.976C90.9852 17.848 90.7452 17.664 90.5692 17.424C90.2812 17.072 90.0732 16.576 89.9452 15.936C89.8012 15.28 89.7452 14.592 89.7772 13.872C89.7932 13.152 89.8892 12.44 90.0652 11.736C90.2412 11.016 90.4972 10.408 90.8332 9.912ZM92.8252 9.864C92.4252 10.184 92.1132 10.656 91.8892 11.28C91.6812 11.904 91.5452 12.56 91.4812 13.248C91.4172 13.936 91.4252 14.6 91.5052 15.24C91.6012 15.864 91.7612 16.336 91.9852 16.656C92.1132 16.848 92.2732 16.96 92.4652 16.992C92.6572 17.024 92.8412 17.008 93.0172 16.944C93.2092 16.864 93.3692 16.76 93.4972 16.632C93.6252 16.488 93.6892 16.336 93.6892 16.176C93.7212 15.264 93.7292 14.344 93.7132 13.416C93.6972 12.488 93.7212 11.568 93.7852 10.656C93.7852 10.24 93.6892 9.952 93.4972 9.792C93.3212 9.632 93.0972 9.656 92.8252 9.864Z" fill="#F554B1"/>
</svg>
