<svg width="10" height="10" viewBox="0 0 10 10" fill="none" xmlns="http://www.w3.org/2000/svg">
<path d="M3.69531 8.79427L7.20573 5.29427C7.2474 5.2526 7.27684 5.20747 7.29406 5.15885C7.31156 5.11024 7.32031 5.05816 7.32031 5.0026C7.32031 4.94705 7.31156 4.89497 7.29406 4.84635C7.27684 4.79774 7.2474 4.7526 7.20573 4.71094L3.69531 1.20052C3.59809 1.1033 3.47656 1.05469 3.33073 1.05469C3.1849 1.05469 3.0599 1.10677 2.95573 1.21094C2.85156 1.3151 2.79948 1.43663 2.79948 1.57552C2.79948 1.71441 2.85156 1.83594 2.95573 1.9401L6.01823 5.0026L2.95573 8.0651C2.85851 8.16233 2.8099 8.28205 2.8099 8.42427C2.8099 8.56677 2.86198 8.6901 2.96615 8.79427C3.07031 8.89844 3.19184 8.95052 3.33073 8.95052C3.46962 8.95052 3.59115 8.89844 3.69531 8.79427Z" fill="#666465"/>
</svg>
