<svg width="10" height="10" viewBox="0 0 10 10" fill="none" xmlns="http://www.w3.org/2000/svg">
<path d="M6.30469 8.79427L2.79427 5.29427C2.7526 5.2526 2.72316 5.20747 2.70594 5.15885C2.68844 5.11024 2.67969 5.05816 2.67969 5.0026C2.67969 4.94705 2.68844 4.89497 2.70594 4.84635C2.72316 4.79774 2.7526 4.7526 2.79427 4.71094L6.30469 1.20052C6.40191 1.1033 6.52344 1.05469 6.66927 1.05469C6.8151 1.05469 6.9401 1.10677 7.04427 1.21094C7.14844 1.3151 7.20052 1.43663 7.20052 1.57552C7.20052 1.71441 7.14844 1.83594 7.04427 1.9401L3.98177 5.0026L7.04427 8.0651C7.14149 8.16233 7.1901 8.28205 7.1901 8.42427C7.1901 8.56677 7.13802 8.6901 7.03385 8.79427C6.92969 8.89844 6.80816 8.95052 6.66927 8.95052C6.53038 8.95052 6.40885 8.89844 6.30469 8.79427Z" fill="#666465"/>
</svg>
