<svg width="16" height="16" viewBox="0 0 16 16" fill="none" xmlns="http://www.w3.org/2000/svg">
<path d="M2.39728 2.79844C2.39728 2.69235 2.43943 2.59061 2.51444 2.51559C2.58946 2.44058 2.6912 2.39844 2.79728 2.39844H3.14768C3.72928 2.39844 4.06368 2.77684 4.25728 3.15444C4.38928 3.41284 4.48448 3.72804 4.56368 4.00164H12.7997C12.9233 4.00167 13.0452 4.03036 13.1559 4.08543C13.2666 4.14051 13.363 4.22048 13.4375 4.31907C13.5121 4.41767 13.5628 4.5322 13.5856 4.65368C13.6085 4.77516 13.6029 4.90028 13.5693 5.01924L12.3725 9.23924C12.2773 9.57405 12.0755 9.86867 11.7977 10.0784C11.52 10.2882 11.1814 10.4017 10.8333 10.4016H6.77009C6.41911 10.4018 6.07782 10.2865 5.79882 10.0735C5.51981 9.86059 5.31857 9.56181 5.22608 9.22324L4.71248 7.33924C4.70954 7.33079 4.70687 7.32226 4.70448 7.31364L3.87968 4.51604L3.79968 4.24644C3.71968 3.96964 3.64928 3.72484 3.54368 3.51924C3.41648 3.27124 3.29968 3.19924 3.14688 3.19924H2.79648C2.6904 3.19924 2.58866 3.15709 2.51364 3.08208C2.43863 3.00707 2.39648 2.90532 2.39648 2.79924L2.39728 2.79844ZM5.47568 7.09764L5.99808 9.01444C6.0444 9.18365 6.14506 9.33295 6.28455 9.43934C6.42405 9.54573 6.59465 9.60332 6.77009 9.60324H10.8341C11.008 9.60306 11.1772 9.54619 11.3159 9.44124C11.4547 9.33629 11.5554 9.18898 11.6029 9.02164L12.7997 4.80164H4.79968L5.47568 7.09684V7.09764ZM7.99968 12.4008C7.99968 12.7191 7.87326 13.0243 7.64821 13.2494C7.42317 13.4744 7.11794 13.6008 6.79969 13.6008C6.48143 13.6008 6.1762 13.4744 5.95116 13.2494C5.72611 13.0243 5.59968 12.7191 5.59968 12.4008C5.59968 12.0826 5.72611 11.7774 5.95116 11.5523C6.1762 11.3273 6.48143 11.2008 6.79969 11.2008C7.11794 11.2008 7.42317 11.3273 7.64821 11.5523C7.87326 11.7774 7.99968 12.0826 7.99968 12.4008ZM7.19969 12.4008C7.19969 12.2948 7.15754 12.193 7.08253 12.118C7.00751 12.043 6.90577 12.0008 6.79969 12.0008C6.6936 12.0008 6.59186 12.043 6.51684 12.118C6.44183 12.193 6.39968 12.2948 6.39968 12.4008C6.39968 12.5069 6.44183 12.6087 6.51684 12.6837C6.59186 12.7587 6.6936 12.8008 6.79969 12.8008C6.90577 12.8008 7.00751 12.7587 7.08253 12.6837C7.15754 12.6087 7.19969 12.5069 7.19969 12.4008ZM11.9997 12.4008C11.9997 12.7191 11.8733 13.0243 11.6482 13.2494C11.4232 13.4744 11.1179 13.6008 10.7997 13.6008C10.4814 13.6008 10.1762 13.4744 9.95116 13.2494C9.72611 13.0243 9.59969 12.7191 9.59969 12.4008C9.59969 12.0826 9.72611 11.7774 9.95116 11.5523C10.1762 11.3273 10.4814 11.2008 10.7997 11.2008C11.1179 11.2008 11.4232 11.3273 11.6482 11.5523C11.8733 11.7774 11.9997 12.0826 11.9997 12.4008ZM11.1997 12.4008C11.1997 12.2948 11.1575 12.193 11.0825 12.118C11.0075 12.043 10.9058 12.0008 10.7997 12.0008C10.6936 12.0008 10.5919 12.043 10.5168 12.118C10.4418 12.193 10.3997 12.2948 10.3997 12.4008C10.3997 12.5069 10.4418 12.6087 10.5168 12.6837C10.5919 12.7587 10.6936 12.8008 10.7997 12.8008C10.9058 12.8008 11.0075 12.7587 11.0825 12.6837C11.1575 12.6087 11.1997 12.5069 11.1997 12.4008Z" fill="#F554B1"/>
</svg>
