<svg width="28" height="28" viewBox="0 0 28 28" fill="none" xmlns="http://www.w3.org/2000/svg">
<path d="M4.19525 4.89531C4.19525 4.70966 4.269 4.53161 4.40027 4.40034C4.53155 4.26906 4.7096 4.19531 4.89525 4.19531H5.50845C6.52625 4.19531 7.11145 4.85751 7.45025 5.51831C7.68125 5.97051 7.84785 6.52211 7.98645 7.00091H22.3995C22.6158 7.00098 22.8291 7.05117 23.0228 7.14755C23.2165 7.24394 23.3852 7.38389 23.5157 7.55642C23.6461 7.72896 23.7349 7.92939 23.7749 8.14198C23.8149 8.35457 23.8051 8.57354 23.7462 8.78171L21.6518 16.1667C21.4853 16.7526 21.1321 17.2682 20.646 17.6353C20.1599 18.0024 19.5674 18.201 18.9582 18.2009H11.8476C11.2334 18.2011 10.6362 17.9994 10.1479 17.6267C9.65967 17.2541 9.30749 16.7312 9.14565 16.1387L8.24685 12.8417C8.24169 12.8269 8.23703 12.812 8.23285 12.7969L6.78945 7.90111L6.64945 7.42931C6.50945 6.94491 6.38625 6.51651 6.20145 6.15671C5.97885 5.72271 5.77445 5.59671 5.50705 5.59671H4.89385C4.7082 5.59671 4.53015 5.52296 4.39887 5.39169C4.2676 5.26041 4.19385 5.08236 4.19385 4.89671L4.19525 4.89531ZM9.58245 12.4189L10.4966 15.7733C10.5777 16.0694 10.7538 16.3307 10.998 16.5169C11.2421 16.7031 11.5406 16.8039 11.8476 16.8037H18.9596C19.2641 16.8034 19.5601 16.7039 19.8029 16.5202C20.0456 16.3366 20.2219 16.0788 20.305 15.7859L22.3995 8.40091H8.39945L9.58245 12.4175V12.4189ZM13.9994 21.6995C13.9994 22.2565 13.7782 22.7906 13.3844 23.1844C12.9905 23.5783 12.4564 23.7995 11.8994 23.7995C11.3425 23.7995 10.8083 23.5783 10.4145 23.1844C10.0207 22.7906 9.79945 22.2565 9.79945 21.6995C9.79945 21.1426 10.0207 20.6084 10.4145 20.2146C10.8083 19.8208 11.3425 19.5995 11.8994 19.5995C12.4564 19.5995 12.9905 19.8208 13.3844 20.2146C13.7782 20.6084 13.9994 21.1426 13.9994 21.6995ZM12.5994 21.6995C12.5994 21.5139 12.5257 21.3358 12.3944 21.2045C12.2631 21.0733 12.0851 20.9995 11.8994 20.9995C11.7138 20.9995 11.5357 21.0733 11.4045 21.2045C11.2732 21.3358 11.1994 21.5139 11.1994 21.6995C11.1994 21.8852 11.2732 22.0632 11.4045 22.1945C11.5357 22.3258 11.7138 22.3995 11.8994 22.3995C12.0851 22.3995 12.2631 22.3258 12.3944 22.1945C12.5257 22.0632 12.5994 21.8852 12.5994 21.6995ZM20.9994 21.6995C20.9994 22.2565 20.7782 22.7906 20.3844 23.1844C19.9905 23.5783 19.4564 23.7995 18.8994 23.7995C18.3425 23.7995 17.8083 23.5783 17.4145 23.1844C17.0207 22.7906 16.7994 22.2565 16.7994 21.6995C16.7994 21.1426 17.0207 20.6084 17.4145 20.2146C17.8083 19.8208 18.3425 19.5995 18.8994 19.5995C19.4564 19.5995 19.9905 19.8208 20.3844 20.2146C20.7782 20.6084 20.9994 21.1426 20.9994 21.6995ZM19.5994 21.6995C19.5994 21.5139 19.5257 21.3358 19.3944 21.2045C19.2631 21.0733 19.0851 20.9995 18.8994 20.9995C18.7138 20.9995 18.5357 21.0733 18.4045 21.2045C18.2732 21.3358 18.1994 21.5139 18.1994 21.6995C18.1994 21.8852 18.2732 22.0632 18.4045 22.1945C18.5357 22.3258 18.7138 22.3995 18.8994 22.3995C19.0851 22.3995 19.2631 22.3258 19.3944 22.1945C19.5257 22.0632 19.5994 21.8852 19.5994 21.6995Z" fill="#666465"/>
</svg>
