<svg width="28" height="28" viewBox="0 0 28 28" fill="none" xmlns="http://www.w3.org/2000/svg">
<g clip-path="url(#clip0_9959_6283)">
<path d="M22.2728 22.168H11.7798C10.2667 22.168 8.925 21.1751 8.5155 19.753L4.96883 7.73514C4.84283 7.29997 4.424 7.0013 3.94567 7.0013H1.16667C0.5215 7.0013 0 6.47864 0 5.83464C0 5.19064 0.5215 4.66797 1.16667 4.66797H3.94567C5.45883 4.66797 6.79933 5.6608 7.20883 7.08297L7.87267 9.33464H25.7168C26.4448 9.33464 27.1355 9.68114 27.5637 10.2621C27.9883 10.8385 28.1108 11.5595 27.8997 12.2408L25.4928 19.8801C25.0215 21.2591 23.73 22.168 22.2728 22.168Z" fill="#F554B1"/>
<path d="M12.8333 27.9987C11.5465 27.9987 10.5 26.9522 10.5 25.6654C10.5 24.3785 11.5465 23.332 12.8333 23.332C14.1202 23.332 15.1667 24.3785 15.1667 25.6654C15.1667 26.9522 14.1202 27.9987 12.8333 27.9987Z" fill="#F554B1"/>
<path d="M21.0001 27.9987C19.7132 27.9987 18.6667 26.9522 18.6667 25.6654C18.6667 24.3785 19.7132 23.332 21.0001 23.332C22.2869 23.332 23.3334 24.3785 23.3334 25.6654C23.3334 26.9522 22.2869 27.9987 21.0001 27.9987Z" fill="#F554B1"/>
</g>
<defs>
<clipPath id="clip0_9959_6283">
<rect width="28" height="28" fill="white"/>
</clipPath>
</defs>
</svg>
