<svg width="20" height="21" viewBox="0 0 20 21" fill="none" xmlns="http://www.w3.org/2000/svg">
<path d="M6 3.15625C5.20435 3.15625 4.44129 3.47232 3.87868 4.03493C3.31607 4.59754 3 5.3606 3 6.15625V14.1562C3 14.9519 3.31607 15.715 3.87868 16.2776C4.44129 16.8402 5.20435 17.1562 6 17.1562H14C14.7956 17.1562 15.5587 16.8402 16.1213 16.2776C16.6839 15.715 17 14.9519 17 14.1562V6.15625C17 5.3606 16.6839 4.59754 16.1213 4.03493C15.5587 3.47232 14.7956 3.15625 14 3.15625H6ZM13.354 8.51025L9.354 12.5103C9.30755 12.5568 9.25238 12.5938 9.19163 12.619C9.13089 12.6442 9.06577 12.6571 9 12.6571C8.93423 12.6571 8.86911 12.6442 8.80837 12.619C8.74762 12.5938 8.69245 12.5568 8.646 12.5103L6.646 10.5103C6.55211 10.4164 6.49937 10.289 6.49937 10.1562C6.49937 10.0235 6.55211 9.89614 6.646 9.80225C6.73989 9.70836 6.86722 9.65562 7 9.65562C7.13278 9.65562 7.26011 9.70836 7.354 9.80225L9 11.4493L12.646 7.80225C12.7399 7.70836 12.8672 7.65562 13 7.65562C13.1328 7.65562 13.2601 7.70836 13.354 7.80225C13.4479 7.89614 13.5006 8.02347 13.5006 8.15625C13.5006 8.28903 13.4479 8.41636 13.354 8.51025Z" fill="#F554B1"/>
</svg>
