<svg width="24" height="24" viewBox="0 0 24 24" fill="none" xmlns="http://www.w3.org/2000/svg">
<g clip-path="url(#clip0_9697_7500)">
<path d="M22 13V3C22 2.86739 21.9473 2.74021 21.8536 2.64645C21.7598 2.55268 21.6326 2.5 21.5 2.5H7.5C7.36739 2.5 7.24021 2.55268 7.14645 2.64645C7.05268 2.74021 7 2.86739 7 3V11.17C6.23 11.12 6.055 11.17 4 11.435V11C4 10.8674 3.94732 10.7402 3.85355 10.6464C3.75979 10.5527 3.63261 10.5 3.5 10.5H0.5C0.367392 10.5 0.240215 10.5527 0.146447 10.6464C0.0526784 10.7402 0 10.8674 0 11L0 19.5C0 19.6326 0.0526784 19.7598 0.146447 19.8536C0.240215 19.9473 0.367392 20 0.5 20H3.5C3.63261 20 3.75979 19.9473 3.85355 19.8536C3.94732 19.7598 4 19.6326 4 19.5V19C5.77 19 4.845 18.755 9.815 21C10.6129 21.3623 11.4843 21.5335 12.36 21.5C14.11 21.5 14.185 21.24 22.915 16.78C23.3147 16.5752 23.6339 16.2419 23.8211 15.8336C24.0083 15.4254 24.0526 14.966 23.9469 14.5295C23.8413 14.0929 23.5918 13.7047 23.2386 13.4272C22.8854 13.1498 22.4491 12.9993 22 13ZM16 3.5V5.19C14.19 4.285 14.805 4.29 13 5.19V3.5H16ZM8 3.5H12V6C12.0003 6.08523 12.0223 6.16898 12.064 6.2433C12.1058 6.31762 12.1658 6.38003 12.2384 6.42462C12.3111 6.4692 12.3939 6.49448 12.4791 6.49805C12.5642 6.50162 12.6489 6.48336 12.725 6.445L14.5 5.56C16.385 6.5 16.445 6.62 16.765 6.425C17.085 6.23 17 6.19 17 3.5H21V13.265L15.5 16.075C15.5088 15.82 15.4698 15.5656 15.385 15.325C15 14.28 14.71 14.355 9 11.665C8.67783 11.5211 8.34308 11.4073 8 11.325V3.5ZM3 19H1V11.5H3V19ZM22.46 15.89C13.71 20.36 13.78 20.5 12.36 20.5C11.6284 20.5359 10.8987 20.3989 10.23 20.1C5.17 17.805 6 18 4 18V12.44C8.11 11.94 6.72 11.705 13.925 15.09C14.0447 15.1462 14.152 15.2257 14.2407 15.3237C14.3295 15.4216 14.3979 15.5363 14.4421 15.6609C14.4863 15.7855 14.5053 15.9176 14.4981 16.0497C14.4908 16.1817 14.4575 16.311 14.4 16.43C14.346 16.55 14.2688 16.6581 14.1729 16.7482C14.0771 16.8382 13.9643 16.9085 13.8413 16.955C13.7182 17.0014 13.5871 17.0231 13.4556 17.0188C13.3242 17.0145 13.1948 16.9844 13.075 16.93L9.13 15.05C9.01232 15.0038 8.88151 15.0039 8.76389 15.0502C8.64626 15.0966 8.55057 15.1858 8.49607 15.2998C8.44156 15.4139 8.4323 15.5444 8.47014 15.665C8.50798 15.7857 8.59011 15.8875 8.7 15.95L12.645 17.805C12.9566 17.9557 13.3026 18.0213 13.6477 17.9949C13.9929 17.9686 14.3249 17.8513 14.61 17.655L21.54 14.11C21.6569 14.0496 21.7845 14.0128 21.9156 14.0017C22.0467 13.9906 22.1787 14.0055 22.3041 14.0454C22.4294 14.0853 22.5457 14.1496 22.6462 14.2344C22.7468 14.3193 22.8296 14.4231 22.89 14.54C22.9504 14.6569 22.9872 14.7845 22.9983 14.9156C23.0094 15.0467 22.9945 15.1787 22.9546 15.3041C22.9147 15.4294 22.8504 15.5457 22.7656 15.6462C22.6807 15.7468 22.5769 15.8296 22.46 15.89Z" fill="#F554B1"/>
<path d="M17.5 12.5H19.5C19.6326 12.5 19.7598 12.4473 19.8536 12.3536C19.9473 12.2598 20 12.1326 20 12C20 11.8674 19.9473 11.7402 19.8536 11.6464C19.7598 11.5527 19.6326 11.5 19.5 11.5H17.5C17.3674 11.5 17.2402 11.5527 17.1464 11.6464C17.0527 11.7402 17 11.8674 17 12C17 12.1326 17.0527 12.2598 17.1464 12.3536C17.2402 12.4473 17.3674 12.5 17.5 12.5Z" fill="#F554B1"/>
</g>
<defs>
<clipPath id="clip0_9697_7500">
<rect width="24" height="24" fill="white"/>
</clipPath>
</defs>
</svg>
