<svg width="16" height="16" viewBox="0 0 16 16" fill="none" xmlns="http://www.w3.org/2000/svg">
<path d="M8.00033 8.4987C5.88699 8.4987 4.16699 6.7787 4.16699 4.66536C4.16699 2.55203 5.88699 0.832031 8.00033 0.832031C10.1137 0.832031 11.8337 2.55203 11.8337 4.66536C11.8337 6.7787 10.1137 8.4987 8.00033 8.4987ZM8.00033 1.83203C6.44033 1.83203 5.16699 3.10536 5.16699 4.66536C5.16699 6.22536 6.44033 7.4987 8.00033 7.4987C9.56033 7.4987 10.8337 6.22536 10.8337 4.66536C10.8337 3.10536 9.56033 1.83203 8.00033 1.83203Z" fill="#F554B1"/>
<path d="M10.5461 15.1663C10.2927 15.1663 10.0527 15.0729 9.87938 14.8996C9.67272 14.6929 9.57938 14.3929 9.62605 14.0796L9.75272 13.1796C9.78605 12.9463 9.92605 12.6729 10.0927 12.4996L12.4527 10.1396C13.3994 9.19294 14.2327 9.73294 14.6394 10.1396C14.9861 10.4863 15.1661 10.8596 15.1661 11.2329C15.1661 11.6129 14.9927 11.9663 14.6394 12.3196L12.2793 14.6796C12.1127 14.8463 11.8327 14.9863 11.5994 15.0196L10.6993 15.1462C10.646 15.1595 10.5994 15.1663 10.5461 15.1663ZM13.5394 10.6129C13.4194 10.6129 13.3127 10.6929 13.1594 10.8463L10.7994 13.2063C10.7794 13.2263 10.7461 13.2929 10.7461 13.3196L10.6261 14.1529L11.4594 14.0329C11.4861 14.0263 11.5527 13.9929 11.5727 13.9729L13.9327 11.6129C14.0394 11.5063 14.1661 11.3529 14.1661 11.2329C14.1661 11.1329 14.0861 10.9929 13.9327 10.8463C13.7727 10.6863 13.6527 10.6129 13.5394 10.6129Z" fill="#F554B1"/>
<path d="M13.9471 12.8103C13.9004 12.8103 13.8537 12.8037 13.8137 12.7903C12.9337 12.5437 12.2337 11.8437 11.9871 10.9637C11.9137 10.697 12.0671 10.4237 12.3337 10.3503C12.6004 10.277 12.8737 10.4303 12.9471 10.697C13.1004 11.2437 13.5337 11.677 14.0804 11.8303C14.3471 11.9037 14.5004 12.1837 14.4271 12.4437C14.3671 12.6637 14.1671 12.8103 13.9471 12.8103Z" fill="#F554B1"/>
<path d="M2.27344 15.1667C2.0001 15.1667 1.77344 14.94 1.77344 14.6667C1.77344 11.82 4.56678 9.5 8.00013 9.5C8.7268 9.5 9.4468 9.60667 10.1201 9.80667C10.3868 9.88667 10.5335 10.1667 10.4535 10.4267C10.3735 10.6933 10.0935 10.84 9.83346 10.76C9.2468 10.5867 8.63346 10.4933 8.00013 10.4933C5.12012 10.4933 2.77344 12.36 2.77344 14.66C2.77344 14.94 2.54677 15.1667 2.27344 15.1667Z" fill="#F554B1"/>
</svg>
