<svg width="16" height="16" viewBox="0 0 16 16" fill="none" xmlns="http://www.w3.org/2000/svg">
<g clip-path="url(#clip0_9691_6497)">
<path d="M14.6292 1.36711C14.4777 1.18995 14.2877 1.0498 14.0737 0.957362C13.8597 0.864923 13.6274 0.822649 13.3945 0.833773C13.0122 0.888843 12.6618 1.07784 12.4059 1.36711L9.9852 3.78777C9.80659 3.97818 9.68749 4.21661 9.64253 4.47377L9.5092 5.39977C9.4844 5.5484 9.4949 5.70078 9.53983 5.84461C9.58476 5.98844 9.66287 6.11969 9.76786 6.22777C9.85702 6.31436 9.96239 6.38248 10.0779 6.42825C10.1935 6.47401 10.3169 6.4965 10.4412 6.49444C10.493 6.49427 10.5446 6.49048 10.5959 6.48311L11.5212 6.34977C11.7788 6.30512 12.0176 6.18573 12.2079 6.00644L14.6279 3.58644C14.7937 3.45295 14.9275 3.28401 15.0194 3.09205C15.1114 2.90008 15.1592 2.68995 15.1593 2.47709C15.1594 2.26423 15.1119 2.05405 15.0202 1.86197C14.9284 1.66989 14.7948 1.5008 14.6292 1.36711ZM13.4925 1.83377H13.5125C13.6731 1.86569 13.8179 1.95183 13.9225 2.07777C14.2679 2.42377 14.2259 2.58311 13.9225 2.88644L13.8112 2.99777C13.4558 2.83017 13.1698 2.544 13.0025 2.18844L13.1132 2.07777C13.2108 1.95807 13.3434 1.87203 13.4925 1.83177V1.83377ZM11.5045 5.30044C11.4672 5.32847 11.4252 5.34969 11.3805 5.36311L10.5079 5.48644L10.6312 4.61977C10.6448 4.57464 10.6657 4.53207 10.6932 4.49377L12.2659 2.92444C12.4753 3.2485 12.7511 3.52437 13.0752 3.73377L11.5045 5.30044Z" fill="#F554B1"/>
<path d="M4.16634 5.33203C4.16634 5.69463 4.27386 6.04909 4.47531 6.35058C4.67676 6.65207 4.96309 6.88705 5.29809 7.02581C5.63309 7.16457 6.00171 7.20088 6.35734 7.13014C6.71297 7.0594 7.03964 6.88479 7.29604 6.62839C7.55243 6.372 7.72704 6.04533 7.79778 5.6897C7.86852 5.33406 7.83221 4.96544 7.69345 4.63044C7.55469 4.29545 7.31971 4.00912 7.01822 3.80767C6.71673 3.60622 6.36227 3.4987 5.99967 3.4987C5.51355 3.49905 5.04744 3.69232 4.7037 4.03606C4.35996 4.3798 4.16669 4.84591 4.16634 5.33203ZM6.83301 5.33203C6.83301 5.49685 6.78413 5.65797 6.69257 5.79501C6.601 5.93205 6.47085 6.03886 6.31858 6.10193C6.16631 6.165 5.99875 6.18151 5.8371 6.14935C5.67545 6.1172 5.52696 6.03783 5.41042 5.92129C5.29387 5.80474 5.21451 5.65626 5.18235 5.49461C5.1502 5.33296 5.1667 5.1654 5.22977 5.01313C5.29285 4.86086 5.39966 4.73071 5.5367 4.63914C5.67374 4.54757 5.83486 4.4987 5.99967 4.4987C6.22058 4.49905 6.43234 4.58696 6.58854 4.74316C6.74474 4.89937 6.83265 5.11113 6.83301 5.33203ZM14.6663 6.16536C14.5337 6.16536 14.4066 6.21804 14.3128 6.31181C14.219 6.40558 14.1663 6.53276 14.1663 6.66536V8.1767L13.9057 7.95336C13.5496 7.65803 13.1016 7.49639 12.639 7.49639C12.1764 7.49639 11.7284 7.65803 11.3723 7.95336L8.59967 10.332C8.42485 10.4708 8.20821 10.5463 7.98501 10.5463C7.7618 10.5463 7.54517 10.4708 7.37034 10.332L7.14834 10.1414C6.82016 9.8692 6.41312 9.70988 5.98739 9.68695C5.56166 9.66402 5.13985 9.7787 4.78434 10.014L2.03167 11.8654C1.88674 11.254 1.81954 10.6269 1.83167 9.9987V5.9987C1.83301 2.9227 2.92367 1.83203 5.99967 1.83203H8.66634C8.79895 1.83203 8.92613 1.77935 9.01989 1.68558C9.11366 1.59182 9.16634 1.46464 9.16634 1.33203C9.16634 1.19942 9.11366 1.07225 9.01989 0.978478C8.92613 0.88471 8.79895 0.832031 8.66634 0.832031H5.99967C2.37767 0.832031 0.833008 2.37736 0.833008 5.9987V9.9987C0.833008 13.62 2.37767 15.1654 5.99967 15.1654H9.99967C13.6217 15.1654 15.1663 13.62 15.1663 9.9987V6.66536C15.1663 6.53276 15.1137 6.40558 15.0199 6.31181C14.9261 6.21804 14.7989 6.16536 14.6663 6.16536ZM9.99967 14.1654H5.99967C4.16167 14.1654 3.03701 13.7714 2.42567 12.802L5.34101 10.846C5.51538 10.7338 5.7205 10.6788 5.92765 10.6888C6.13481 10.6989 6.33364 10.7734 6.49634 10.902L6.71834 11.0927C7.07438 11.388 7.52242 11.5497 7.98501 11.5497C8.44759 11.5497 8.89564 11.388 9.25167 11.0927L12.0257 8.7127C12.2006 8.57348 12.4175 8.49768 12.641 8.49768C12.8645 8.49768 13.0815 8.57348 13.2563 8.7127L14.1677 9.4947V9.9987C14.1663 13.0747 13.0757 14.1654 9.99967 14.1654Z" fill="#F554B1"/>
</g>
<defs>
<clipPath id="clip0_9691_6497">
<rect width="16" height="16" fill="white"/>
</clipPath>
</defs>
</svg>
