<svg width="16" height="16" viewBox="0 0 16 16" fill="none" xmlns="http://www.w3.org/2000/svg">
<rect width="16" height="16" fill="#D0D0D0"/>
<g id="Sign Up Screen">
<rect width="375" height="812" transform="translate(-99 -612)" fill="#FFF7FA"/>
<g id="Group 1171275095">
<g id="sign in-form">
<rect id="background" x="-76" y="-558" width="327" height="703" rx="16" fill="white"/>
</g>
<g id="Button/Social">
<g id="Group 311">
<g id="button">
<rect id="Rectangle 226" x="-55.75" y="-12.75" width="286.5" height="41.5" rx="11.75" stroke="#EAECF8" stroke-width="0.5"/>
</g>
</g>
<g id="Group 1171275058">
<g id="Icon/Social/google">
<g id="Group 202">
<path id="Vector" d="M3.54594 9.6684L2.989 11.7475L0.953407 11.7906C0.345063 10.6622 0 9.37127 0 7.99941C0 6.67283 0.322625 5.42184 0.894501 4.32031H0.894938L2.70719 4.65256L3.50106 6.45392C3.33491 6.93832 3.24435 7.45832 3.24435 7.99941C3.24441 8.58665 3.35078 9.14931 3.54594 9.6684Z" fill="#FBBB00"/>
<path id="Vector_2" d="M15.8601 6.50391C15.952 6.98784 15.9999 7.48762 15.9999 7.99839C15.9999 8.57114 15.9397 9.12982 15.825 9.66873C15.4355 11.5026 14.4179 13.1039 13.0083 14.237L13.0078 14.2366L10.7252 14.1201L10.4022 12.1034C11.3375 11.5549 12.0685 10.6964 12.4536 9.66873H8.17578V6.50391H12.516H15.8601Z" fill="#518EF8"/>
<path id="Vector_3" d="M13.0076 14.2372L13.0081 14.2376C11.6371 15.3395 9.89554 15.9989 7.99972 15.9989C4.95313 15.9989 2.30434 14.2961 0.953125 11.7901L3.54566 9.66797C4.22125 11.471 5.9606 12.7545 7.99972 12.7545C8.87619 12.7545 9.69732 12.5176 10.4019 12.104L13.0076 14.2372Z" fill="#28B446"/>
<path id="Vector_4" d="M13.1064 1.84174L10.5148 3.96347C9.78554 3.50766 8.92354 3.24435 8.00004 3.24435C5.91475 3.24435 4.14288 4.58675 3.50113 6.45445L0.894969 4.32084H0.894531C2.22597 1.75383 4.90816 0 8.00004 0C9.94113 0 11.7209 0.691432 13.1064 1.84174Z" fill="#F14336"/>
</g>
</g>
</g>
</g>
</g>
</g>
</svg>
