<svg width="28" height="28" viewBox="0 0 28 28" fill="none" xmlns="http://www.w3.org/2000/svg">
<path fill-rule="evenodd" clip-rule="evenodd" d="M18.4914 2.91816C19.2275 2.91816 19.9625 3.02199 20.6614 3.25649C24.9675 4.65649 26.5192 9.38149 25.223 13.5115C24.488 15.622 23.2864 17.5482 21.7125 19.122C19.4597 21.3037 16.9875 23.2403 14.3264 24.9087L14.0347 25.0848L13.7314 24.897C11.0609 23.2403 8.57469 21.3037 6.30086 19.1103C4.73753 17.5365 3.53469 15.622 2.78803 13.5115C1.46969 9.38149 3.02136 4.65649 7.37419 3.23199C7.71253 3.11532 8.06136 3.03366 8.41136 2.98816H8.55136C8.87919 2.94032 9.20469 2.91816 9.53136 2.91816H9.65969C10.3947 2.94032 11.1064 3.06866 11.7959 3.30316H11.8647C11.9114 3.32532 11.9464 3.34982 11.9697 3.37199C12.2275 3.45482 12.4714 3.54816 12.7047 3.67649L13.148 3.87482C13.2552 3.93196 13.3754 4.01926 13.4793 4.09471C13.5452 4.14251 13.6044 4.18555 13.6497 4.21315C13.6687 4.22439 13.6881 4.23568 13.7076 4.24707C13.8076 4.30547 13.9118 4.36629 13.9997 4.43365C15.2959 3.44315 16.8697 2.90649 18.4914 2.91816ZM21.5956 11.3176C22.0739 11.3047 22.4822 10.9209 22.5172 10.4297V10.2909C22.5522 8.65641 21.5617 7.17592 20.0556 6.60425C19.5772 6.43975 19.0522 6.69758 18.8772 7.18758C18.7139 7.67758 18.9706 8.21425 19.4606 8.38808C20.2084 8.66808 20.7089 9.40425 20.7089 10.2197V10.2559C20.6867 10.5231 20.7672 10.7809 20.9306 10.9792C21.0939 11.1776 21.3389 11.2931 21.5956 11.3176Z" fill="#F554B1"/>
</svg>
