<svg width="22" height="22" viewBox="0 0 22 22" fill="none" xmlns="http://www.w3.org/2000/svg">
    <g clip-path="url(#clip0_11680_2325)">
        <path d="M19.9775 9.66296C19.8975 7.38445 18.9748 5.2538 17.3546 3.63361C15.6565 1.9351 13.3995 1 10.9999 1C6.15337 1 2.19332 4.85756 2.02262 9.66296C1.28303 9.99163 0.765381 10.7319 0.765381 11.5922V13.9624C0.765381 15.1263 1.71223 16.0735 2.87645 16.0735C3.62975 16.0735 4.24238 15.4609 4.24238 14.7076V10.8468C4.24238 10.1395 3.69992 9.56276 3.01027 9.49421C3.26485 5.30765 6.75001 1.97916 10.9999 1.97916C13.1384 1.97916 15.1492 2.81275 16.6627 4.32621C18.0525 5.71596 18.8658 7.52741 18.9882 9.49454C18.2992 9.56373 17.7577 10.1401 17.7577 10.8468V14.7073C17.7577 15.4204 18.3087 16.0007 19.0065 16.0611V17.0367C19.0065 18.1353 18.1125 19.0289 17.0139 19.0289H15.5383C15.4658 18.822 15.3523 18.6308 15.193 18.4721C14.9139 18.1918 14.5418 18.0374 14.1456 18.0374H12.6246C12.4063 18.0374 12.1968 18.0837 12.0048 18.1732C11.4813 18.4137 11.1432 18.9418 11.1432 19.5185C11.1432 19.9148 11.2976 20.2868 11.5773 20.5653C11.857 20.8456 12.2291 21 12.6246 21H14.1456C14.7762 21 15.332 20.5923 15.5393 20.0081H17.0139C18.6527 20.0081 19.9856 18.6751 19.9856 17.0367V15.8868C20.7207 15.5562 21.2344 14.8186 21.2344 13.9618V11.5916C21.2344 10.7319 20.7168 9.99163 19.9775 9.66296ZM3.26289 10.8468V14.7073C3.26289 14.9204 3.08958 15.094 2.87612 15.094C2.25207 15.094 1.74421 14.5862 1.74421 13.9621V11.5919C1.74421 10.9675 2.25207 10.46 2.87612 10.46C3.08958 10.46 3.26289 10.6336 3.26289 10.8468ZM14.6368 19.6236C14.5882 19.8541 14.3813 20.0215 14.1453 20.0215H12.6243C12.4905 20.0215 12.3648 19.9693 12.2689 19.8733C12.1742 19.779 12.122 19.653 12.122 19.5192C12.122 19.3237 12.2366 19.1451 12.4161 19.0626C12.4801 19.0325 12.5502 19.0172 12.6243 19.0172H14.1453C14.2791 19.0172 14.4048 19.0691 14.5004 19.1651C14.595 19.2594 14.6473 19.3854 14.6473 19.5192C14.6476 19.5551 14.6437 19.591 14.6368 19.6236ZM20.2552 13.9621C20.2552 14.5862 19.7474 15.094 19.1233 15.094C18.9102 15.094 18.7366 14.9207 18.7366 14.7073V10.8468C18.7366 10.6336 18.9099 10.46 19.1233 10.46C19.7474 10.46 20.2552 10.9679 20.2552 11.5919V13.9621Z" fill="#666465"/>
        <path d="M14.17 14.13C15.314 14.13 16.2445 13.1991 16.2445 12.0555V7.82842C16.2445 7.27552 16.0285 6.75461 15.6362 6.36229C15.2438 5.96997 14.7233 5.75391 14.17 5.75391H7.82964C6.68566 5.75391 5.75513 6.68443 5.75513 7.82842V12.0555C5.75513 13.1994 6.68566 14.13 7.82964 14.13H7.86848V15.2253C7.86848 15.6431 8.11751 16.0139 8.50265 16.1702C8.627 16.2201 8.75625 16.245 8.8842 16.245C9.15086 16.245 9.41066 16.1392 9.60094 15.9424L11.4232 14.13H14.17ZM10.8765 13.2931L8.90443 15.2544C8.89562 15.2635 8.88909 15.2704 8.87049 15.2622C8.84797 15.2531 8.84797 15.2384 8.84797 15.2253V13.6404C8.84797 13.3701 8.62896 13.1508 8.35839 13.1508H7.82997C7.22583 13.1508 6.73461 12.6593 6.73461 12.0555V7.82842C6.73461 7.22428 7.22583 6.73307 7.82997 6.73307H14.1704C14.4621 6.73307 14.7366 6.8473 14.9442 7.05456C15.1518 7.26214 15.2657 7.53696 15.2657 7.82842V12.0555C15.2657 12.6596 14.7742 13.1508 14.1704 13.1508H11.2218C11.0922 13.1508 10.9682 13.2021 10.8765 13.2931Z" fill="#666465"/>
        <path d="M8.62146 9.29883C8.22327 9.29883 7.89917 9.62326 7.89917 10.0211C7.89917 10.419 8.2236 10.7434 8.62146 10.7434C9.01998 10.7434 9.34441 10.419 9.34441 10.0211C9.34441 9.62326 9.02031 9.29883 8.62146 9.29883Z" fill="#666465"/>
        <path d="M10.9996 9.29883C10.6014 9.29883 10.2773 9.62326 10.2773 10.0211C10.2773 10.419 10.6018 10.7434 10.9996 10.7434C11.3985 10.7434 11.7226 10.419 11.7226 10.0211C11.7226 9.62326 11.3985 9.29883 10.9996 9.29883Z" fill="#666465"/>
        <path d="M13.3773 9.29883C12.9791 9.29883 12.655 9.62326 12.655 10.0211C12.655 10.419 12.9795 10.7434 13.3773 10.7434C13.7758 10.7434 14.1003 10.419 14.1003 10.0211C14.1003 9.62326 13.7758 9.29883 13.3773 9.29883Z" fill="#666465"/>
    </g>
    <defs>
        <clipPath id="clip0_11680_2325">
            <rect width="20.469" height="22" fill="white" transform="translate(0.765381)"/>
        </clipPath>
    </defs>
</svg>
