<svg width="14" height="14" viewBox="0 0 14 14" fill="none" xmlns="http://www.w3.org/2000/svg">
<path fill-rule="evenodd" clip-rule="evenodd" d="M9.5666 0.668075C9.98726 0.668075 10.4073 0.727409 10.8066 0.861409C13.2673 1.66141 14.1539 4.36141 13.4133 6.72141C12.9933 7.92741 12.3066 9.02807 11.4073 9.92741C10.1199 11.1741 8.70726 12.2807 7.1866 13.2341L7.01993 13.3347L6.8466 13.2274C5.3206 12.2807 3.89993 11.1741 2.6006 9.92074C1.70726 9.02141 1.01993 7.92741 0.593263 6.72141C-0.16007 4.36141 0.726596 1.66141 3.21393 0.847409C3.40726 0.780742 3.6066 0.734075 3.8066 0.708075H3.8866C4.07393 0.680742 4.25993 0.668075 4.4466 0.668075H4.51993C4.93993 0.680742 5.3466 0.754075 5.7406 0.888075H5.77993C5.8066 0.900742 5.8266 0.914742 5.83993 0.927409C5.98726 0.974742 6.1266 1.02808 6.25993 1.10141L6.51326 1.21474C6.57448 1.24739 6.64319 1.29728 6.70257 1.34039C6.74019 1.36771 6.77407 1.3923 6.79993 1.40808C6.81081 1.41449 6.82187 1.42095 6.83301 1.42746C6.89018 1.46082 6.94972 1.49558 6.99993 1.53408C7.7406 0.968075 8.63993 0.661409 9.5666 0.668075ZM11.3404 5.46775C11.6138 5.46041 11.8471 5.24108 11.8671 4.96041V4.88108C11.8871 3.94708 11.3211 3.10108 10.4604 2.77441C10.1871 2.68041 9.8871 2.82775 9.7871 3.10775C9.69376 3.38775 9.84043 3.69441 10.1204 3.79375C10.5478 3.95375 10.8338 4.37441 10.8338 4.84041V4.86108C10.8211 5.01375 10.8671 5.16108 10.9604 5.27441C11.0538 5.38775 11.1938 5.45375 11.3404 5.46775Z" fill="#FC2C1C"/>
</svg>
