<svg width="24" height="24" viewBox="0 0 24 24" fill="none" xmlns="http://www.w3.org/2000/svg">
<mask id="path-1-inside-1_9959_3498" fill="white">
<path fill-rule="evenodd" clip-rule="evenodd" d="M9.12719 20.419V17.4749C9.12718 16.7261 9.76979 16.1176 10.566 16.1126H13.4824C14.2824 16.1126 14.9309 16.7225 14.9309 17.4749V20.4281C14.9308 21.0639 15.4703 21.5835 16.1461 21.5984H18.0904C20.0287 21.5984 21.5999 20.1207 21.5999 18.2978V9.92276C21.5896 9.20563 21.2315 8.53221 20.6278 8.09415L13.9782 3.05633C12.8133 2.17914 11.1573 2.17914 9.99241 3.05633L3.37205 8.10329C2.76597 8.53958 2.40737 9.21412 2.3999 9.9319V18.2978C2.3999 20.1207 3.97114 21.5984 5.90937 21.5984H7.85367C8.54628 21.5984 9.10775 21.0704 9.10775 20.419"/>
</mask>
<path fill-rule="evenodd" clip-rule="evenodd" d="M9.12719 20.419V17.4749C9.12718 16.7261 9.76979 16.1176 10.566 16.1126H13.4824C14.2824 16.1126 14.9309 16.7225 14.9309 17.4749V20.4281C14.9308 21.0639 15.4703 21.5835 16.1461 21.5984H18.0904C20.0287 21.5984 21.5999 20.1207 21.5999 18.2978V9.92276C21.5896 9.20563 21.2315 8.53221 20.6278 8.09415L13.9782 3.05633C12.8133 2.17914 11.1573 2.17914 9.99241 3.05633L3.37205 8.10329C2.76597 8.53958 2.40737 9.21412 2.3999 9.9319V18.2978C2.3999 20.1207 3.97114 21.5984 5.90937 21.5984H7.85367C8.54628 21.5984 9.10775 21.0704 9.10775 20.419" fill="#F554B1"/>
<path d="M7.12719 20.419C7.12719 21.5236 8.02262 22.419 9.12719 22.419C10.2318 22.419 11.1272 21.5236 11.1272 20.419H7.12719ZM9.12719 17.4749H11.1272V17.4749L9.12719 17.4749ZM10.566 16.1126V14.1126L10.5534 14.1126L10.566 16.1126ZM16.9309 17.4749C16.9309 16.3704 16.0355 15.4749 14.9309 15.4749C13.8264 15.4749 12.9309 16.3704 12.9309 17.4749H16.9309ZM14.9309 20.4281L16.9309 20.4287V20.4281H14.9309ZM16.1461 21.5984L16.102 23.598C16.1167 23.5983 16.1314 23.5984 16.1461 23.5984V21.5984ZM18.0904 21.5984V19.5984V21.5984ZM19.5999 18.2978C19.5999 19.4024 20.4953 20.2978 21.5999 20.2978C22.7045 20.2978 23.5999 19.4024 23.5999 18.2978H19.5999ZM21.5999 9.92276H23.5999C23.5999 9.91314 23.5998 9.90352 23.5997 9.8939L21.5999 9.92276ZM20.6278 8.09415L19.42 9.6883C19.431 9.69664 19.4421 9.70486 19.4533 9.71297L20.6278 8.09415ZM13.9782 3.05633L15.186 1.46217L15.1813 1.45863L13.9782 3.05633ZM9.99241 3.05633L8.78932 1.4586L8.77988 1.4658L9.99241 3.05633ZM3.37205 8.10329L4.5405 9.72648C4.55534 9.71579 4.57004 9.70491 4.58458 9.69382L3.37205 8.10329ZM2.3999 9.9319L0.40001 9.91111C0.399938 9.91804 0.399902 9.92497 0.399902 9.9319H2.3999ZM11.1272 20.419V17.4749H7.12719V20.419H11.1272ZM11.1272 17.4749C11.1272 17.9384 10.7658 18.1114 10.5786 18.1126L10.5534 14.1126C8.77378 14.1239 7.12715 15.5137 7.12719 17.475L11.1272 17.4749ZM10.566 18.1126H13.4824V14.1126H10.566V18.1126ZM13.4824 18.1126C13.2952 18.1126 12.9309 17.9409 12.9309 17.4749H16.9309C16.9309 15.5042 15.2696 14.1126 13.4824 14.1126V18.1126ZM12.9309 17.4749V20.4281H16.9309V17.4749H12.9309ZM12.9309 20.4275C12.9304 22.2611 14.4524 23.5616 16.102 23.598L16.1902 19.5989C16.4882 19.6055 16.9311 19.8668 16.9309 20.4287L12.9309 20.4275ZM16.1461 23.5984H18.0904V19.5984H16.1461V23.5984ZM18.0904 23.5984C21.0159 23.5984 23.5999 21.3391 23.5999 18.2978H19.5999C19.5999 18.9023 19.0414 19.5984 18.0904 19.5984V23.5984ZM23.5999 18.2978V9.92276H19.5999V18.2978H23.5999ZM23.5997 9.8939C23.5798 8.51725 22.8924 7.26625 21.8022 6.47533L19.4533 9.71297C19.5707 9.79818 19.5993 9.89401 19.6001 9.95162L23.5997 9.8939ZM21.8355 6.5L15.186 1.46218L12.7705 4.65048L19.42 9.6883L21.8355 6.5ZM15.1813 1.45863C13.304 0.0450399 10.6666 0.0450399 8.78934 1.45863L11.1955 4.65402C11.648 4.31324 12.3226 4.31324 12.7752 4.65402L15.1813 1.45863ZM8.77988 1.4658L2.15953 6.51276L4.58458 9.69382L11.2049 4.64686L8.77988 1.4658ZM2.2036 6.48011C1.10586 7.27032 0.414396 8.5278 0.40001 9.91111L4.39979 9.9527C4.40034 9.90044 4.42609 9.80884 4.5405 9.72648L2.2036 6.48011ZM0.399902 9.9319V18.2978H4.3999V9.9319H0.399902ZM0.399902 18.2978C0.399902 21.3391 2.98393 23.5984 5.90937 23.5984V19.5984C4.95836 19.5984 4.3999 18.9023 4.3999 18.2978H0.399902ZM5.90937 23.5984H7.85367V19.5984H5.90937V23.5984ZM7.85367 23.5984C9.53349 23.5984 11.1077 22.2888 11.1077 20.419H7.10775C7.10775 19.852 7.55907 19.5984 7.85367 19.5984V23.5984Z" fill="#F554B1" mask="url(#path-1-inside-1_9959_3498)"/>
</svg>
