<svg width="22" height="22" viewBox="0 0 22 22" fill="none" xmlns="http://www.w3.org/2000/svg">
<g id="flat">
<path id="Vector" d="M12.875 15.125L19.807 18.591C20.2136 18.7943 20.5649 19.0932 20.8308 19.4621C21.0966 19.8309 21.2691 20.2587 21.3334 20.7088L21.5 21.875H0.5L0.666594 20.7088C0.730896 20.2587 0.90336 19.8309 1.16921 19.4621C1.43506 19.0932 1.78637 18.7943 2.19303 18.591L9.125 15.125H12.875Z" fill="#026CA2"/>
<path id="Vector_2" d="M9.125 15.125H12.875V21.875H9.125V15.125Z" fill="#CBCBCB"/>
<path id="Vector_3" d="M9.125 13.625V15.125L8.75 16.25V16.625H13.25V16.25L12.875 15.125V13.625H9.125Z" fill="#FDC9A6"/>
<path id="Vector_4" d="M12.875 13.625V14.5456C12.8712 14.5484 12.867 14.5508 12.8633 14.5536C12.3113 14.9274 11.6596 15.1265 10.9929 15.125C10.3263 15.1236 9.67543 14.9217 9.125 14.5456V13.625H12.875Z" fill="#FDC9A6"/>
<path id="Vector_5" d="M12.875 13.625V14.5456C12.8712 14.5484 12.867 14.5508 12.8633 14.5536C12.3113 14.9274 11.6596 15.1265 10.9929 15.125C10.3263 15.1236 9.67543 14.9217 9.125 14.5456V13.625H12.875Z" fill="#E6AF89"/>
<path id="Vector_6" d="M2.375 21.875V20.375C2.375 20.2755 2.41451 20.1802 2.48484 20.1098C2.55516 20.0395 2.65054 20 2.75 20C2.84946 20 2.94484 20.0395 3.01516 20.1098C3.08549 20.1802 3.125 20.2755 3.125 20.375V21.875H2.375Z" fill="#015078"/>
<path id="Vector_7" d="M18.875 21.875V20.375C18.875 20.2755 18.9145 20.1802 18.9848 20.1098C19.0552 20.0395 19.1505 20 19.25 20C19.3495 20 19.4448 20.0395 19.5152 20.1098C19.5855 20.1802 19.625 20.2755 19.625 20.375V21.875H18.875Z" fill="#015078"/>
<path id="Vector_8" d="M9.82153 17.2143L10.2501 18.5H11.7501L12.1787 17.2143L11.0001 16.625L9.82153 17.2143Z" fill="#0296E5"/>
<path id="Vector_9" d="M10.25 18.5L9.875 21.875H12.125L11.75 18.5H10.25Z" fill="#026CA2"/>
<path id="Vector_10" d="M15.9184 7.05762L16.0788 6.42012C16.2475 5.74935 16.2522 5.04782 16.0926 4.37483C15.933 3.70183 15.6137 3.07717 15.1617 2.55363C14.7028 1.94044 14.0753 1.47411 13.3559 1.21159C12.6364 0.949068 11.856 0.901707 11.1101 1.07529C10.8614 1.13323 10.6136 1.19084 10.3772 1.24578C9.86648 1.36437 9.38824 1.59416 8.97654 1.91876C8.56484 2.24337 8.22982 2.6548 7.99536 3.12373H7.8958C7.57742 3.12374 7.26343 3.19788 6.97867 3.34026C6.69391 3.48264 6.4462 3.68935 6.25517 3.94404C5.9288 4.3792 5.78867 4.92619 5.86559 5.46467L6.12036 7.24873L6.2569 8.37373H15.5L15.8087 7.4359C15.8498 7.31112 15.8864 7.18503 15.9184 7.05762Z" fill="#55300B"/>
<path id="Vector_11" d="M11 14.3741C10.3358 14.3741 9.68685 14.175 9.13685 13.8027C8.58686 13.4303 8.16105 12.9017 7.91436 12.285C7.47547 11.1878 7.24999 10.0169 7.25 8.83517V6.12406L8.375 4.21484C8.96873 4.81941 9.67696 5.29962 10.4583 5.62743C11.2397 5.95523 12.0786 6.12406 12.926 6.12406H14.75V8.83517C14.75 10.017 14.5246 11.1879 14.0856 12.2852C13.8389 12.9018 13.4131 13.4304 12.8631 13.8027C12.3131 14.1751 11.6642 14.3741 11 14.3741Z" fill="#FDC9A6"/>
<g id="Group">
<path id="Vector_12" d="M13.25 7.625H12.125C12.0255 7.625 11.9302 7.58549 11.8598 7.51517C11.7895 7.44484 11.75 7.34946 11.75 7.25C11.75 7.15054 11.7895 7.05516 11.8598 6.98483C11.9302 6.91451 12.0255 6.875 12.125 6.875H13.25C13.3495 6.875 13.4448 6.91451 13.5152 6.98483C13.5855 7.05516 13.625 7.15054 13.625 7.25C13.625 7.34946 13.5855 7.44484 13.5152 7.51517C13.4448 7.58549 13.3495 7.625 13.25 7.625Z" fill="#55300B"/>
<path id="Vector_13" d="M12.5938 8.9375C12.8526 8.9375 13.0625 8.72763 13.0625 8.46875C13.0625 8.20987 12.8526 8 12.5938 8C12.3349 8 12.125 8.20987 12.125 8.46875C12.125 8.72763 12.3349 8.9375 12.5938 8.9375Z" fill="#55300B"/>
<path id="Vector_14" d="M9.875 7.625H8.75C8.65054 7.625 8.55516 7.58549 8.48483 7.51517C8.41451 7.44484 8.375 7.34946 8.375 7.25C8.375 7.15054 8.41451 7.05516 8.48483 6.98483C8.55516 6.91451 8.65054 6.875 8.75 6.875H9.875C9.97446 6.875 10.0698 6.91451 10.1402 6.98483C10.2105 7.05516 10.25 7.15054 10.25 7.25C10.25 7.34946 10.2105 7.44484 10.1402 7.51517C10.0698 7.58549 9.97446 7.625 9.875 7.625Z" fill="#55300B"/>
<path id="Vector_15" d="M9.40625 8.9375C9.66513 8.9375 9.875 8.72763 9.875 8.46875C9.875 8.20987 9.66513 8 9.40625 8C9.14737 8 8.9375 8.20987 8.9375 8.46875C8.9375 8.72763 9.14737 8.9375 9.40625 8.9375Z" fill="#55300B"/>
</g>
<path id="Vector_16" d="M11.75 12.125H10.25C10.1505 12.125 10.0552 12.0855 9.98483 12.0152C9.91451 11.9448 9.875 11.8495 9.875 11.75C9.875 11.6505 9.91451 11.5552 9.98483 11.4848C10.0552 11.4145 10.1505 11.375 10.25 11.375H11.75C11.8495 11.375 11.9448 11.4145 12.0152 11.4848C12.0855 11.5552 12.125 11.6505 12.125 11.75C12.125 11.8495 12.0855 11.9448 12.0152 12.0152C11.9448 12.0855 11.8495 12.125 11.75 12.125Z" fill="#E6AF89"/>
<path id="Vector_17" d="M11.375 10.625H10.625C10.5255 10.625 10.4302 10.5855 10.3598 10.5152C10.2895 10.4448 10.25 10.3495 10.25 10.25V9.125C10.25 9.02554 10.2895 8.93016 10.3598 8.85983C10.4302 8.78951 10.5255 8.75 10.625 8.75C10.7245 8.75 10.8198 8.78951 10.8902 8.85983C10.9605 8.93016 11 9.02554 11 9.125V9.875H11.375C11.4745 9.875 11.5698 9.91451 11.6402 9.98483C11.7105 10.0552 11.75 10.1505 11.75 10.25C11.75 10.3495 11.7105 10.4448 11.6402 10.5152C11.5698 10.5855 11.4745 10.625 11.375 10.625Z" fill="#E6AF89"/>
<path id="Vector_18" d="M7.25 7.25H6.73175C6.47137 7.25 6.22166 7.35343 6.03755 7.53755C5.85343 7.72166 5.75 7.97137 5.75 8.23175V8.89325C5.75 9.04565 5.78548 9.19597 5.85364 9.33228C5.93518 9.49536 6.06051 9.63251 6.21561 9.72837C6.3707 9.82423 6.54942 9.875 6.73175 9.875H7.39062L7.25 7.25Z" fill="#FDC9A6"/>
<path id="Vector_19" d="M14.75 7.25H15.2682C15.5286 7.25 15.7783 7.35343 15.9625 7.53755C16.1466 7.72166 16.25 7.97137 16.25 8.23175V8.89325C16.25 9.04565 16.2145 9.19597 16.1464 9.33228C16.0648 9.49536 15.9395 9.63251 15.7844 9.72837C15.6293 9.82423 15.4506 9.875 15.2682 9.875H14.6094L14.75 7.25Z" fill="#FDC9A6"/>
<path id="Vector_20" d="M9.125 15.125L11 16.625L8.75 17.75V16.25L9.125 15.125Z" fill="#EBEBEB"/>
<path id="Vector_21" d="M12.875 15.125L11 16.625L13.25 17.75V16.25L12.875 15.125Z" fill="#EBEBEB"/>
<path id="Vector_22" d="M9.125 21.875H7.25L6.125 18.5L9.125 15.125V21.875Z" fill="#0296E5"/>
<path id="Vector_23" d="M12.875 21.875H14.75L15.875 18.5L12.875 15.125V21.875Z" fill="#0296E5"/>
</g>
</svg>
