<svg width="24" height="24" viewBox="0 0 24 24" fill="none" xmlns="http://www.w3.org/2000/svg">
<g clip-path="url(#clip0_9697_7487)">
<path d="M22.3271 17.519C22.2802 17.3527 22.1706 17.2112 22.0213 17.1241C21.8721 17.037 21.6949 17.0113 21.5271 17.0524L19.8671 17.499C20.7754 16.16 21.3262 14.6109 21.4671 12.999C21.6032 11.491 21.3827 9.97201 20.8234 8.56491C20.264 7.15781 19.3815 5.90202 18.2471 4.89904C18.1159 4.79058 17.9483 4.73637 17.7785 4.74753C17.6087 4.75868 17.4496 4.83435 17.3337 4.95904C17.2172 5.09172 17.1581 5.26521 17.1693 5.44145C17.1806 5.61768 17.2613 5.78225 17.3937 5.89904C18.3712 6.76186 19.1317 7.84283 19.6135 9.05436C20.0954 10.2659 20.285 11.5739 20.1671 12.8724C20.0529 14.24 19.5942 15.5565 18.8337 16.699L18.6671 15.0257C18.6796 14.9272 18.6701 14.8272 18.639 14.7329C18.608 14.6386 18.5563 14.5524 18.4877 14.4806C18.4191 14.4089 18.3353 14.3533 18.2425 14.3181C18.1497 14.2828 18.0502 14.2687 17.9513 14.2769C17.8523 14.285 17.7564 14.3151 17.6706 14.365C17.5848 14.4149 17.5112 14.4834 17.4552 14.5654C17.3992 14.6473 17.3623 14.7408 17.347 14.8389C17.3318 14.937 17.3386 15.0373 17.3671 15.1324L17.7004 19.4257L21.8671 18.319C22.0321 18.2708 22.1721 18.1606 22.2579 18.0115C22.3436 17.8624 22.3684 17.686 22.3271 17.519Z" fill="#FDFDFD"/>
<path d="M2.87335 11.3854C2.96195 11.4424 3.06218 11.4789 3.16668 11.4921C3.34067 11.5149 3.51664 11.4682 3.65642 11.3622C3.7962 11.2561 3.88852 11.0992 3.91335 10.9254C4.18881 8.89154 5.22245 7.03678 6.80728 5.73257C8.39211 4.42837 10.4111 3.771 12.46 3.89211L10.9667 4.91211C10.861 4.99171 10.7814 5.10094 10.738 5.22591C10.6946 5.35088 10.6894 5.48594 10.723 5.61389C10.7566 5.74184 10.8275 5.85691 10.9267 5.94444C11.0259 6.03197 11.1489 6.08802 11.28 6.10544C11.4302 6.11917 11.5806 6.08157 11.7067 5.99877L15.26 3.55877L12.22 0.505442C12.1659 0.42255 12.094 0.352744 12.0096 0.301092C11.9252 0.24944 11.8303 0.217238 11.7319 0.206825C11.6334 0.196411 11.5339 0.208047 11.4405 0.240888C11.3472 0.273729 11.2623 0.32695 11.192 0.396688C11.1218 0.466427 11.0679 0.550931 11.0344 0.644067C11.0009 0.737203 10.9886 0.836634 10.9983 0.93514C11.008 1.03365 11.0395 1.12875 11.0905 1.21356C11.1416 1.29837 11.2108 1.37075 11.2933 1.42544L12.4267 2.55877C10.0606 2.44564 7.73802 3.22368 5.91753 4.73931C4.09705 6.25494 2.91094 8.39801 2.59335 10.7454C2.57626 10.8676 2.59338 10.9921 2.64281 11.1051C2.69224 11.218 2.77205 11.3151 2.87335 11.3854Z" fill="#FDFDFD"/>
<path d="M14.4871 19.9533C13.4461 20.2859 12.3479 20.4016 11.2604 20.2933C9.936 20.1635 8.66307 19.7133 7.55153 18.9816C6.43999 18.2498 5.52324 17.2586 4.88043 16.0933L6.54043 16.7133C6.69345 16.7399 6.85093 16.7122 6.9857 16.635C7.12046 16.5578 7.22405 16.436 7.27858 16.2906C7.33311 16.1451 7.33516 15.9853 7.28438 15.8385C7.2336 15.6917 7.13317 15.5673 7.00043 15.4867L3.94043 14.3533L2.96043 14L2.22043 18.2333C2.19478 18.4025 2.23514 18.575 2.33318 18.7153C2.43121 18.8555 2.57941 18.9527 2.7471 18.9867H2.86043C3.01734 18.9895 3.17022 18.9369 3.29217 18.8382C3.41411 18.7394 3.4973 18.6007 3.5271 18.4467L3.8071 16.8467C4.56111 18.1675 5.62021 19.2888 6.89594 20.1169C8.17168 20.9449 9.62702 21.4558 11.1404 21.6067C12.4057 21.7321 13.6833 21.5959 14.8938 21.2067C15.0479 21.1428 15.1725 21.0236 15.243 20.8724C15.3134 20.7212 15.3247 20.549 15.2744 20.39C15.2242 20.2309 15.1162 20.0964 14.9716 20.0131C14.8271 19.9298 14.6566 19.9037 14.4938 19.94L14.4871 19.9533Z" fill="#FDFDFD"/>
<path d="M14.667 8.66797H9.33366C9.15685 8.66797 8.98728 8.73821 8.86225 8.86323C8.73723 8.98826 8.66699 9.15782 8.66699 9.33464V14.668C8.66699 14.8448 8.73723 15.0143 8.86225 15.1394C8.98728 15.2644 9.15685 15.3346 9.33366 15.3346H14.667C14.8438 15.3346 15.0134 15.2644 15.1384 15.1394C15.2634 15.0143 15.3337 14.8448 15.3337 14.668V9.33464C15.3337 9.15782 15.2634 8.98826 15.1384 8.86323C15.0134 8.73821 14.8438 8.66797 14.667 8.66797ZM14.0003 14.0013H10.0003V10.0013H14.0003V14.0013Z" fill="#FDFDFD"/>
</g>
<defs>
<clipPath id="clip0_9697_7487">
<rect width="24" height="24" fill="white"/>
</clipPath>
</defs>
</svg>
