<svg width="24" height="24" viewBox="0 0 24 24" fill="none" xmlns="http://www.w3.org/2000/svg">
<path d="M17.2174 4H7.47826C6.55611 4.0011 5.67204 4.36792 5.01998 5.01998C4.36792 5.67204 4.0011 6.55611 4 7.47826L4 17.2174C4.0011 18.1395 4.36792 19.0236 5.01998 19.6757C5.67204 20.3277 6.55611 20.6945 7.47826 20.6957H17.2174C18.1395 20.6945 19.0236 20.3277 19.6757 19.6757C20.3277 19.0236 20.6945 18.1395 20.6957 17.2174V7.47826C20.6945 6.55611 20.3277 5.67204 19.6757 5.01998C19.0236 4.36792 18.1395 4.0011 17.2174 4V4ZM19.3043 7.47826H14.4348V5.3913H17.2174C17.7709 5.3913 18.3017 5.61118 18.6931 6.00256C19.0845 6.39394 19.3043 6.92477 19.3043 7.47826ZM11.6522 5.3913H13.0435V8.86957C13.0435 9.05406 12.9702 9.23101 12.8397 9.36147C12.7093 9.49193 12.5323 9.56522 12.3478 9.56522C12.1633 9.56522 11.9864 9.49193 11.8559 9.36147C11.7255 9.23101 11.6522 9.05406 11.6522 8.86957V5.3913ZM7.47826 5.3913H10.2609V7.47826H5.3913C5.3913 6.92477 5.61118 6.39394 6.00256 6.00256C6.39394 5.61118 6.92477 5.3913 7.47826 5.3913ZM17.2174 19.3043H7.47826C6.92477 19.3043 6.39394 19.0845 6.00256 18.6931C5.61118 18.3017 5.3913 17.7709 5.3913 17.2174V8.86957H10.2609C10.2609 9.42306 10.4807 9.95389 10.8721 10.3453C11.2635 10.7366 11.7943 10.9565 12.3478 10.9565C12.9013 10.9565 13.4321 10.7366 13.8235 10.3453C14.2149 9.95389 14.4348 9.42306 14.4348 8.86957H19.3043V17.2174C19.3043 17.7709 19.0845 18.3017 18.6931 18.6931C18.3017 19.0845 17.7709 19.3043 17.2174 19.3043ZM17.913 17.2174C17.913 17.4019 17.8398 17.5788 17.7093 17.7093C17.5788 17.8398 17.4019 17.913 17.2174 17.913H15.1304C14.9459 17.913 14.769 17.8398 14.6385 17.7093C14.5081 17.5788 14.4348 17.4019 14.4348 17.2174C14.4348 17.0329 14.5081 16.856 14.6385 16.7255C14.769 16.595 14.9459 16.5217 15.1304 16.5217H17.2174C17.4019 16.5217 17.5788 16.595 17.7093 16.7255C17.8398 16.856 17.913 17.0329 17.913 17.2174Z" fill="white"/>
</svg>
