<svg width="74" height="64" viewBox="0 0 74 64" fill="none" xmlns="http://www.w3.org/2000/svg">
<path d="M39.5 2L0 34V64L74 2L39.5 2Z" fill="#F554B1"/>
<path d="M10.1211 46.34L4.83565 39.8113L7.25127 37.8557C7.77356 37.4329 8.27618 37.1701 8.7591 37.0673C9.24203 36.9645 9.69076 36.9975 10.1053 37.1663C10.5198 37.3351 10.8806 37.6091 11.1877 37.9884C11.4796 38.349 11.6681 38.7471 11.7531 39.1827C11.8331 39.612 11.7776 40.0583 11.5866 40.5217C11.3906 40.9789 11.0252 41.424 10.4905 41.8569L9.26869 42.846L11.3149 45.3735L10.1211 46.34ZM8.48343 41.876L9.63061 40.9473C10.0472 40.61 10.2727 40.2782 10.307 39.9519C10.3425 39.6144 10.2319 39.2871 9.97521 38.97C9.71345 38.6466 9.41632 38.4703 9.08381 38.441C8.75248 38.4005 8.37851 38.5488 7.96192 38.8861L6.81473 39.8148L8.48343 41.876ZM15.7584 41.7762L12.0133 37.1502L13.0765 36.2894L13.8906 37.0662C13.8169 36.6318 13.8526 36.2118 13.9976 35.8062C14.1439 35.3893 14.4129 35.0222 14.8046 34.7051L15.8239 35.9642L15.4882 36.236C15.227 36.4475 15.0266 36.6766 14.8868 36.9236C14.7471 37.1705 14.6987 37.4413 14.7416 37.7359C14.7908 38.0255 14.9588 38.3475 15.2457 38.7019L16.9522 40.8098L15.7584 41.7762ZM21.7126 37.1411C21.2463 37.5186 20.7523 37.7539 20.2306 37.8469C19.7089 37.9399 19.1994 37.8891 18.7023 37.6946C18.2051 37.5001 17.7653 37.1665 17.3827 36.694C16.9951 36.2152 16.7498 35.7087 16.6467 35.1746C16.5499 34.6354 16.5956 34.1198 16.7839 33.6277C16.9734 33.1243 17.3107 32.6763 17.7956 32.2837C18.2495 31.9162 18.7311 31.691 19.2404 31.6081C19.7497 31.5252 20.2416 31.5798 20.7163 31.7719C21.1921 31.9528 21.6012 32.2547 21.9435 32.6775C21.9988 32.7459 22.0536 32.8199 22.1078 32.8996C22.1682 32.9742 22.228 33.0544 22.2873 33.1403L18.7711 35.9869C19.0879 36.3274 19.4413 36.5096 19.8313 36.5336C20.2274 36.5525 20.5872 36.4311 20.9105 36.1694C21.153 35.973 21.3123 35.7566 21.3884 35.52C21.4657 35.2722 21.4742 35.0285 21.4141 34.789L22.6266 33.8074C22.7761 34.1701 22.8465 34.5557 22.8376 34.9643C22.8299 35.3617 22.7322 35.7496 22.5445 36.128C22.363 36.5014 22.0857 36.8391 21.7126 37.1411ZM18.5809 33.2536C18.2887 33.4902 18.0986 33.7831 18.0107 34.1322C17.9177 34.475 17.976 34.8395 18.1857 35.2256L20.4894 33.3606C20.2241 33.0711 19.9158 32.9192 19.5647 32.905C19.2135 32.8908 18.8856 33.007 18.5809 33.2536ZM30.3486 30.1497C29.6957 30.6782 29.0079 30.9983 28.2852 31.11C27.5686 31.2166 26.8666 31.1313 26.179 30.8542C25.4927 30.5658 24.8802 30.089 24.3416 29.4237C23.803 28.7584 23.4666 28.0632 23.3325 27.338C23.1995 26.6017 23.2597 25.8941 23.5132 25.2155C23.7728 24.5318 24.2291 23.9257 24.882 23.3971C25.5286 22.8736 26.2133 22.556 26.9361 22.4444C27.6588 22.3328 28.3634 22.4211 29.0497 22.7095C29.7311 22.9917 30.341 23.4654 30.8796 24.1307C31.4183 24.796 31.7571 25.4943 31.8963 26.2257C32.0305 26.9508 31.9677 27.6552 31.7081 28.3389C31.4484 29.0226 30.9953 29.6262 30.3486 30.1497ZM29.4803 29.0771C30.1021 28.5737 30.4303 27.9684 30.4649 27.261C30.5057 26.5486 30.2367 25.8349 29.6578 25.1198C29.079 24.4048 28.4369 23.9931 27.7316 23.8847C27.0325 23.7713 26.3721 23.9663 25.7503 24.4697C25.1285 24.9731 24.7972 25.581 24.7563 26.2934C24.7155 27.0058 24.9845 27.7195 25.5634 28.4346C26.1423 29.1496 26.7844 29.5613 27.4897 29.6697C28.195 29.778 28.8585 29.5805 29.4803 29.0771ZM34.5484 26.5644L30.8033 21.9383L31.8666 21.0775L32.6807 21.8543C32.607 21.4199 32.6426 20.9999 32.7877 20.5943C32.934 20.1774 33.203 19.8104 33.5947 19.4932L34.614 20.7523L34.2783 21.0242C34.0171 21.2356 33.8167 21.4648 33.6769 21.7117C33.5372 21.9587 33.4888 22.2294 33.5317 22.524C33.5809 22.8136 33.7489 23.1356 34.0358 23.49L35.7423 25.5979L34.5484 26.5644ZM40.3815 22.0274C39.9462 22.3797 39.472 22.5887 38.9589 22.6541C38.4458 22.7196 37.9412 22.6494 37.4453 22.4436C36.9493 22.2379 36.5126 21.9018 36.135 21.4355C35.7575 20.9691 35.5222 20.4751 35.4293 19.9534C35.3312 19.4255 35.3702 18.9205 35.546 18.4384C35.7169 17.9502 36.0199 17.5298 36.4551 17.1775C36.8033 16.8956 37.1609 16.7142 37.5277 16.6334C37.8946 16.5525 38.2545 16.5648 38.6074 16.6702L36.4026 13.9468L37.5965 12.9803L43.0329 19.6956L41.9697 20.5563L41.303 19.9999C41.3199 20.3259 41.2669 20.6673 41.144 21.024C41.0274 21.3758 40.7732 21.7103 40.3815 22.0274ZM39.7876 20.7789C40.1731 20.4668 40.3839 20.0852 40.4201 19.6339C40.4573 19.1714 40.3124 18.7381 39.9852 18.3339C39.658 17.9298 39.2669 17.7009 38.8118 17.6473C38.3579 17.5825 37.9381 17.7061 37.5526 18.0182C37.1734 18.3253 36.9625 18.7069 36.9202 19.1632C36.8779 19.6195 37.0203 20.0497 37.3475 20.4539C37.6747 20.858 38.0684 21.09 38.5285 21.1498C38.9886 21.2096 39.4083 21.086 39.7876 20.7789ZM46.587 17.0036C46.1206 17.3811 45.6266 17.6164 45.1049 17.7094C44.5832 17.8024 44.0737 17.7516 43.5766 17.5571C43.0794 17.3626 42.6396 17.029 42.257 16.5565C41.8694 16.0777 41.6241 15.5713 41.521 15.0371C41.4242 14.4979 41.4699 13.9823 41.6582 13.4902C41.8477 12.9868 42.185 12.5388 42.6699 12.1462C43.1239 11.7787 43.6054 11.5535 44.1147 11.4706C44.624 11.3877 45.116 11.4423 45.5906 11.6344C46.0664 11.8153 46.4755 12.1172 46.8178 12.54C46.8732 12.6084 46.9279 12.6824 46.9821 12.7621C47.0425 12.8367 47.1023 12.9169 47.1616 13.0028L43.6454 15.8494C43.9622 16.1899 44.3156 16.3721 44.7056 16.3961C45.1017 16.415 45.4615 16.2936 45.7848 16.0319C46.0273 15.8355 46.1866 15.6191 46.2627 15.3825C46.34 15.1347 46.3485 14.891 46.2884 14.6515L47.5009 13.6699C47.6504 14.0326 47.7208 14.4182 47.7119 14.8269C47.7042 15.2242 47.6065 15.6121 47.4188 15.9905C47.2373 16.3639 46.96 16.7016 46.587 17.0036ZM43.4552 13.1161C43.163 13.3527 42.9729 13.6456 42.885 13.9947C42.792 14.3375 42.8503 14.702 43.06 15.0881L45.3637 13.2231C45.0984 12.9336 44.7901 12.7817 44.439 12.7675C44.0878 12.7533 43.7599 12.8695 43.4552 13.1161ZM49.8228 14.1987L46.0777 9.57265L47.1409 8.71188L47.955 9.48866C47.8813 9.05429 47.917 8.63428 48.062 8.22863C48.2083 7.81173 48.4773 7.44471 48.869 7.12758L49.8884 8.38669L49.5526 8.65851C49.2914 8.86993 49.091 9.09911 48.9512 9.34606C48.8115 9.59301 48.7631 9.86378 48.806 10.1584C48.8552 10.448 49.0232 10.77 49.3102 11.1244L51.0166 13.2322L49.8228 14.1987Z" fill="white"/>
</svg>
