<svg width="16" height="16" viewBox="0 0 16 16" fill="none" xmlns="http://www.w3.org/2000/svg">
<path d="M14.1907 5.51641L10.2235 4.93985L8.45005 1.34454C8.40162 1.2461 8.32193 1.16641 8.22349 1.11797C7.97662 0.9961 7.67662 1.09766 7.55318 1.34454L5.77974 4.93985L1.81255 5.51641C1.70318 5.53204 1.60318 5.5836 1.52662 5.66172C1.43406 5.75686 1.38305 5.88485 1.38481 6.01757C1.38657 6.15029 1.44094 6.27689 1.53599 6.36954L4.4063 9.16797L3.72818 13.1195C3.71228 13.2115 3.72245 13.306 3.75754 13.3924C3.79263 13.4789 3.85124 13.5537 3.92672 13.6086C4.0022 13.6634 4.09153 13.696 4.18458 13.7026C4.27764 13.7092 4.37068 13.6897 4.45318 13.6461L8.00162 11.7805L11.5501 13.6461C11.6469 13.6977 11.7594 13.7148 11.8672 13.6961C12.1391 13.6492 12.3219 13.3914 12.2751 13.1195L11.5969 9.16797L14.4672 6.36954C14.5454 6.29297 14.5969 6.19297 14.6126 6.0836C14.6547 5.81016 14.4641 5.55704 14.1907 5.51641Z" fill="#FFA412"/>
</svg>
