<svg width="269" height="215" viewBox="0 0 269 215" fill="none" xmlns="http://www.w3.org/2000/svg">
<path d="M124.308 211.278C154.574 211.278 179.11 207.044 179.11 201.821C179.11 196.598 154.574 192.363 124.308 192.363C94.0409 192.363 69.5049 196.598 69.5049 201.821C69.5049 207.044 94.0409 211.278 124.308 211.278Z" fill="#EAE6E6"/>
<path d="M43.8933 214.989C64.8746 214.989 81.8833 211.589 81.8833 207.395C81.8833 203.201 64.8746 199.801 43.8933 199.801C22.912 199.801 5.90332 203.201 5.90332 207.395C5.90332 211.589 22.912 214.989 43.8933 214.989Z" fill="#EAE6E6"/>
<path d="M206.8 208.007C226.566 208.007 242.59 205.239 242.59 201.824C242.59 198.409 226.566 195.641 206.8 195.641C187.033 195.641 171.01 198.409 171.01 201.824C171.01 205.239 187.033 208.007 206.8 208.007Z" fill="#EAE6E6"/>
<path d="M208.86 201.004C224.363 196.005 237.824 184.736 245.593 170.245C253.362 155.754 255.37 138.18 251.075 122.261C248.648 113.239 244.231 104.182 245.872 94.9859C248.229 81.9057 261.794 73.8415 266.473 61.4231C271.746 47.4546 263.924 30.9954 251.668 22.6874C239.412 14.3794 223.892 12.6725 209.157 13.2473C194.422 13.8221 179.721 16.3998 164.986 15.6334C133.159 13.944 102.624 -3.31641 70.9541 0.567611C40.192 4.32971 13.8469 29.184 4.82079 59.2634C-4.20532 89.3428 3.00509 123.149 20.778 148.892C38.5509 174.635 29.3676 192.592 58.96 201.945L208.86 201.004Z" fill="#F5F4F4"/>
<path d="M265.408 27.0606C265.164 25.9807 264.361 25.6149 263.663 25.4582C261.498 24.9531 259.263 25.1099 257.116 25.8414C255.178 26.5032 253.31 27.6528 251.581 29.2551C250.691 30.0737 248.404 32.0593 248.194 34.1668C246.047 35.6124 243.899 37.1103 241.804 38.6604C241.996 38.1727 242.136 37.7547 242.223 37.5457C242.939 35.8736 243.393 34.0623 243.62 32.1464C243.777 30.7704 243.795 29.29 243.149 27.7224C242.852 26.9909 242.241 26.1026 241.333 25.8065C240.495 25.5279 239.901 25.9285 239.5 26.3291C238.243 27.6005 237.405 29.1855 237.003 30.962C236.637 32.5644 236.637 34.3235 237.003 36.1697C237.195 37.1625 237.614 39.7054 239.098 40.6634C236.375 42.7186 233.721 44.8609 231.102 47.0729C231.207 46.3936 231.224 45.784 231.259 45.5053C231.486 43.6939 231.434 41.8303 231.137 39.9318C230.91 38.5559 230.526 37.1451 229.479 35.804C228.99 35.177 228.169 34.4977 227.209 34.4629C226.336 34.428 225.865 34.968 225.603 35.4556C224.747 37.0232 224.363 38.7649 224.468 40.5937C224.555 42.2309 225.027 43.9378 225.882 45.6098C226.301 46.4284 227.226 48.4314 228.658 49.1803C227.576 50.1383 226.493 51.0962 225.428 52.0716C223.49 53.8481 221.587 55.6595 219.702 57.5057C219.178 57.6277 218.794 57.9237 218.707 58.4985C217.17 60.0486 215.651 61.6162 214.15 63.2186C214.307 63.7585 214.464 64.281 214.639 64.8209C216.088 63.2534 217.572 61.7033 219.073 60.1706C219.684 61.3723 220.889 62.4174 221.43 62.9051C222.809 64.1765 224.328 65.0996 225.882 65.6221C227.611 66.2143 229.391 66.3362 231.137 65.9356C231.696 65.8137 232.342 65.5176 232.534 64.6642C232.761 63.7411 232.324 62.7483 231.853 62.1213C230.84 60.7453 229.583 59.9964 228.309 59.4042C226.563 58.5856 224.782 58.0457 222.967 57.767C222.74 57.7322 222.251 57.6102 221.709 57.5232C224.311 54.9802 226.982 52.507 229.723 50.1209C230.229 51.5317 231.678 52.7857 232.289 53.343C233.669 54.6145 235.188 55.5376 236.741 56.0601C238.47 56.6523 240.251 56.7742 241.996 56.3736C242.555 56.2517 243.201 55.9556 243.393 55.1022C243.62 54.1791 243.184 53.1863 242.712 52.5593C241.7 51.1833 240.443 50.4344 239.168 49.8422C237.422 49.0236 235.641 48.4837 233.826 48.205C233.546 48.1701 232.935 48.0134 232.272 47.9263C234.786 45.8014 237.37 43.7288 239.989 41.7432C240.652 43.0843 242.241 44.1468 242.904 44.6345C244.423 45.7317 246.029 46.4807 247.636 46.829C249.416 47.2122 251.197 47.1251 252.891 46.5329C253.432 46.3414 254.043 45.9756 254.13 45.1047C254.235 44.1642 253.694 43.2411 253.152 42.6663C252 41.4297 250.638 40.8201 249.329 40.3847C247.496 39.7751 245.663 39.4442 243.83 39.3745C243.707 39.3745 243.498 39.3571 243.236 39.3222C244.982 38.0508 246.745 36.8142 248.543 35.595C249.643 36.6748 252.699 35.8214 253.484 35.6995C255.736 35.3511 257.954 34.6719 260.118 33.6443C261.69 32.9127 263.261 31.9548 264.518 30.2479C265.147 29.4467 265.688 28.2101 265.408 27.0606Z" fill="#92DAD8"/>
<path d="M211.409 173.746H38.4984C35.932 173.746 34.0464 171.674 34.2908 169.114L45.2549 53.3244C45.4993 50.764 47.7689 48.6914 50.3528 48.6914H223.263C225.829 48.6914 227.715 50.764 227.471 53.3244L216.507 169.114C216.262 171.674 213.975 173.746 211.409 173.746Z" fill="#666063"/>
<path d="M40.7332 164.324L51.121 54.6484H221.343L210.955 164.324H40.7332Z" fill="#EEF0F0"/>
<path d="M149.081 193.199H102.834C97.9975 193.199 93.7027 197.118 93.2488 201.943H157.008C157.462 197.118 153.918 193.199 149.081 193.199Z" fill="#666063"/>
<path d="M138.397 193.201H114.042L115.893 173.746H140.247L138.397 193.201Z" fill="#666063"/>
<path d="M115.893 173.746L115.491 177.857L139.113 185.694L140.248 173.746H115.893Z" fill="#554C51"/>
<path d="M138.502 192.102H114.147L114.042 193.199H138.397L138.502 192.102Z" fill="#554C51"/>
<path d="M32.964 46.3047C32.964 46.3744 32.9466 46.4266 32.9466 46.4963L22.646 153.107H198.926L209.244 46.3047H32.964Z" fill="white"/>
<path d="M209.383 44.7896C209.925 39.2161 206.014 34.9141 200.41 34.9141H45.7087C39.4934 34.9141 33.6622 40.1566 32.9639 46.3049H209.244L209.383 44.7896Z" fill="#666063"/>
<path d="M200.395 42.627C201.44 41.6297 201.548 40.0493 200.634 39.097C199.721 38.1447 198.134 38.1812 197.089 39.1786C196.044 40.1759 195.937 41.7563 196.85 42.7086C197.763 43.6609 199.35 43.6243 200.395 42.627Z" fill="white"/>
<path d="M192.834 42.627C193.879 41.6297 193.986 40.0493 193.073 39.097C192.16 38.1447 190.573 38.1812 189.528 39.1786C188.483 40.1759 188.376 41.7563 189.289 42.7086C190.202 43.6609 191.789 43.6243 192.834 42.627Z" fill="white"/>
<path d="M186.129 40.9047C186.006 42.2807 184.784 43.3954 183.405 43.3954C182.026 43.3954 181.013 42.2807 181.135 40.9047C181.258 39.5288 182.48 38.4141 183.859 38.4141C185.221 38.4141 186.251 39.5288 186.129 40.9047Z" fill="white"/>
<path d="M16.2738 93.1074C16.1342 93.09 16.0119 93.1945 15.9945 93.3164L15.8374 94.6923C15.8199 94.8317 15.9247 94.9536 16.0469 94.971C16.0643 94.971 16.0643 94.971 16.0818 94.971C16.204 94.971 16.3087 94.8839 16.3262 94.762L16.4833 93.3861C16.5182 93.2467 16.4135 93.1248 16.2738 93.1074Z" fill="#FCA1D5"/>
<path d="M15.8548 96.6269C15.7151 96.6095 15.5929 96.714 15.5754 96.8359L15.4008 98.2119C15.3834 98.3512 15.4881 98.4731 15.6103 98.4905C15.6278 98.4905 15.6278 98.4905 15.6453 98.4905C15.7675 98.4905 15.8722 98.4035 15.8897 98.2815L16.0468 96.9056C16.0817 96.7662 15.9944 96.6443 15.8548 96.6269Z" fill="#FCA1D5"/>
<path d="M18.4037 95.5469H17.0245C16.8848 95.5469 16.78 95.6514 16.78 95.7907C16.78 95.9301 16.8848 96.0346 17.0245 96.0346H18.4037C18.5434 96.0346 18.6481 95.9301 18.6481 95.7907C18.6481 95.6688 18.5434 95.5469 18.4037 95.5469Z" fill="#FCA1D5"/>
<path d="M14.8771 95.5469H13.4978C13.3582 95.5469 13.2534 95.6514 13.2534 95.7907C13.2534 95.9301 13.3582 96.0346 13.4978 96.0346H14.8771C15.0167 96.0346 15.1215 95.9301 15.1215 95.7907C15.1215 95.6688 15.0167 95.5469 14.8771 95.5469Z" fill="#FCA1D5"/>
<path d="M121.671 20.998C121.532 20.9806 121.409 21.0851 121.392 21.207L121.235 22.583C121.217 22.7223 121.322 22.8442 121.444 22.8616C121.462 22.8616 121.462 22.8616 121.479 22.8616C121.601 22.8616 121.706 22.7745 121.724 22.6526L121.881 21.2767C121.898 21.1373 121.811 21.0154 121.671 20.998Z" fill="#FCA1D5"/>
<path d="M121.252 24.5175C121.113 24.5001 120.99 24.6046 120.973 24.7265L120.798 26.1025C120.781 26.2418 120.886 26.3637 121.008 26.3812C121.025 26.3812 121.025 26.3812 121.043 26.3812C121.165 26.3812 121.27 26.2941 121.287 26.1722L121.444 24.7962C121.479 24.6569 121.374 24.5349 121.252 24.5175Z" fill="#FCA1D5"/>
<path d="M123.801 23.4375H122.422C122.282 23.4375 122.177 23.542 122.177 23.6813C122.177 23.8207 122.282 23.9252 122.422 23.9252H123.801C123.941 23.9252 124.046 23.8207 124.046 23.6813C124.046 23.5594 123.941 23.4375 123.801 23.4375Z" fill="#FCA1D5"/>
<path d="M120.275 23.4375H118.895C118.756 23.4375 118.651 23.542 118.651 23.6813C118.651 23.8207 118.756 23.9252 118.895 23.9252H120.275C120.414 23.9252 120.519 23.8207 120.519 23.6813C120.519 23.5594 120.414 23.4375 120.275 23.4375Z" fill="#FCA1D5"/>
<path d="M256.365 95.4707C256.225 95.4532 256.103 95.5577 256.086 95.6797L255.928 97.0556C255.911 97.1949 256.016 97.3169 256.138 97.3343C256.155 97.3343 256.155 97.3343 256.173 97.3343C256.295 97.3343 256.4 97.2472 256.417 97.1253L256.574 95.7493C256.592 95.61 256.505 95.4881 256.365 95.4707Z" fill="#8CB167"/>
<path d="M255.946 98.9902C255.806 98.9728 255.684 99.0773 255.666 99.1992L255.509 100.575C255.492 100.714 255.597 100.836 255.719 100.854C255.736 100.854 255.736 100.854 255.754 100.854C255.876 100.854 255.981 100.767 255.998 100.645L256.155 99.2689C256.173 99.1295 256.068 99.0076 255.946 98.9902Z" fill="#8CB167"/>
<path d="M258.495 97.9102H257.116C256.976 97.9102 256.871 98.0147 256.871 98.154C256.871 98.2933 256.976 98.3978 257.116 98.3978H258.495C258.634 98.3978 258.739 98.2933 258.739 98.154C258.739 98.0321 258.617 97.9102 258.495 97.9102Z" fill="#8CB167"/>
<path d="M254.968 97.9102H253.589C253.449 97.9102 253.344 98.0147 253.344 98.154C253.344 98.2933 253.449 98.3978 253.589 98.3978H254.968C255.108 98.3978 255.213 98.2933 255.213 98.154C255.213 98.0321 255.09 97.9102 254.968 97.9102Z" fill="#8CB167"/>
<path d="M209.122 178.363C209.104 178.363 209.104 178.363 209.122 178.363C209 178.363 208.93 178.259 208.93 178.154C209.279 172.999 208.685 163.228 208.685 163.123C208.685 163.019 208.755 162.931 208.86 162.914C208.965 162.914 209.052 162.984 209.069 163.088C209.069 163.193 209.68 172.981 209.314 178.154C209.296 178.293 209.209 178.363 209.122 178.363Z" fill="#F554B1"/>
<path d="M33.0052 197.094C30.0023 187.793 23.2633 179.277 14.0102 173.128C12.9627 172.432 11.8802 171.752 10.6232 171.352C9.3662 170.951 7.89968 170.847 6.66011 171.282C5.07138 171.857 4.11115 173.233 3.93657 174.609C3.74452 175.985 4.2159 177.378 4.8095 178.684C6.8347 183.161 10.3963 187.166 14.8482 190.336C19.3002 193.506 24.6076 195.875 30.2293 197.46C30.7879 197.617 31.3466 197.774 31.9402 197.739C32.5338 197.721 33.1274 197.477 33.3718 197.059C33.6162 196.641 33.3369 196.032 32.7608 195.945L33.0052 197.094Z" fill="#ACE0DF"/>
<path d="M28.8327 191.711H28.8152C18.7765 189.725 9.41869 176.697 9.3314 176.558C9.29648 176.505 9.31394 176.436 9.36632 176.401C9.41869 176.366 9.48853 176.384 9.52344 176.436C9.61074 176.575 18.9162 189.533 28.8676 191.484C28.9374 191.502 28.9724 191.554 28.9549 191.624C28.92 191.658 28.8851 191.711 28.8327 191.711Z" fill="#EFF0FB"/>
<path d="M12.0898 179.956C12.0723 179.956 12.0548 179.956 12.0374 179.939C11.985 179.921 11.9501 179.852 11.985 179.782L12.6135 178.406C12.631 178.354 12.7008 178.319 12.7706 178.354C12.823 178.371 12.8579 178.441 12.823 178.511L12.1945 179.887C12.177 179.939 12.1247 179.956 12.0898 179.956Z" fill="#EFF0FB"/>
<path d="M11.8801 183.632C11.8103 183.632 11.7754 183.58 11.7754 183.528C11.7754 183.458 11.8278 183.406 11.8801 183.406L15.5115 183.371C15.5814 183.371 15.6337 183.423 15.6337 183.476C15.6337 183.545 15.5814 183.598 15.529 183.598L11.8801 183.632Z" fill="#EFF0FB"/>
<path d="M4.02373 199.01C2.27787 197.478 0.724052 195.701 0.182835 193.681C-0.358383 191.643 0.287587 189.309 2.31279 188.003C3.91898 186.958 6.17115 186.696 8.21381 186.975C10.2565 187.254 12.1595 188.02 13.9577 188.839C21.0284 192.043 27.3485 196.346 32.4464 201.414C34.2097 203.173 36.4095 206.482 32.3242 207.144C29.1292 207.667 25.2534 207.353 22.0934 206.9C15.2147 205.873 8.73757 203.138 4.02373 199.01Z" fill="#ACE0DF"/>
<path d="M32.8308 205.243C24.3983 203.954 17.6942 200.279 13.539 197.405C9.05218 194.305 6.52068 191.466 6.48576 191.431C6.45084 191.379 6.45084 191.309 6.50322 191.274C6.5556 191.239 6.62543 191.239 6.66035 191.292C6.7651 191.396 16.8038 202.561 32.8308 205.016C32.9007 205.034 32.9356 205.086 32.9181 205.138C32.9356 205.208 32.8832 205.243 32.8308 205.243Z" fill="#EFF0FB"/>
<path d="M9.80288 194.516C9.7505 194.516 9.69813 194.464 9.69813 194.412L9.64575 192.809C9.64575 192.74 9.69813 192.688 9.7505 192.688C9.82034 192.688 9.87271 192.74 9.87271 192.792L9.92509 194.394C9.92509 194.464 9.87271 194.516 9.80288 194.516Z" fill="#EFF0FB"/>
<path d="M10.344 198.085C10.2916 198.085 10.2393 198.05 10.2393 197.998C10.2218 197.928 10.2742 197.876 10.3266 197.859L13.5913 197.214C13.6612 197.197 13.7135 197.249 13.731 197.301C13.7484 197.371 13.6961 197.423 13.6437 197.441L10.3789 198.085C10.3615 198.085 10.3615 198.085 10.344 198.085Z" fill="#EFF0FB"/>
<path d="M13.8533 202.143C13.8009 202.143 13.7485 202.109 13.7485 202.039C13.7311 201.969 13.7835 201.917 13.8358 201.917L20.1035 201.011C20.1733 200.994 20.2257 201.046 20.2257 201.098C20.2432 201.168 20.1908 201.22 20.1384 201.22L13.8533 202.143Z" fill="#EFF0FB"/>
<path d="M109.084 96.9858H51.2432L54.5778 58.8945H112.418L109.084 96.9858Z" fill="#F5F4F4"/>
<path d="M109.084 97.4039H51.2432C51.121 97.4039 51.0162 97.3516 50.9289 97.2645C50.8416 97.1775 50.8067 97.0555 50.8242 96.9336L54.1588 58.8597C54.1762 58.6333 54.3683 58.4766 54.5778 58.4766H112.418C112.54 58.4766 112.645 58.5288 112.732 58.6159C112.82 58.703 112.855 58.8249 112.837 58.9468L109.503 97.0207C109.485 97.2471 109.293 97.4039 109.084 97.4039ZM51.6971 96.5504H108.682L111.947 59.3126H54.9619L51.6971 96.5504Z" fill="#FCA1D5"/>
<path d="M183.37 97.4054H116.818C116.696 97.4054 116.591 97.3532 116.504 97.2661C116.416 97.179 116.381 97.0571 116.399 96.9352L120.24 53.1136C120.257 52.8872 120.449 52.7305 120.659 52.7305H187.211C187.333 52.7305 187.438 52.7827 187.525 52.8698C187.613 52.9569 187.648 53.0788 187.63 53.2007L183.789 97.0223C183.772 97.2487 183.597 97.4054 183.37 97.4054ZM117.272 96.552H182.969L186.74 53.5839H121.043L117.272 96.552Z" fill="#FCA1D5"/>
<path d="M104.667 144.365H46.8088L50.1609 106.273H108.001L104.667 144.365Z" fill="#F5F4F4"/>
<path d="M104.667 144.783H46.8086C46.6864 144.783 46.5817 144.731 46.4944 144.643C46.4071 144.556 46.3722 144.434 46.3896 144.313L49.7242 106.239C49.7417 106.012 49.9337 105.855 50.1432 105.855H107.984C108.106 105.855 108.211 105.908 108.298 105.995C108.385 106.082 108.42 106.204 108.403 106.326L105.068 144.4C105.068 144.609 104.876 144.783 104.667 144.783ZM47.28 143.929H104.265L107.53 106.691H50.5448L47.28 143.929Z" fill="#FCA1D5"/>
<path d="M179.459 144.365H121.602L124.954 106.273H182.794L179.459 144.365Z" fill="#F5F4F4"/>
<path d="M179.459 144.783H121.602C121.479 144.783 121.375 144.731 121.287 144.643C121.2 144.556 121.165 144.434 121.183 144.313L124.535 106.239C124.552 106.012 124.744 105.855 124.954 105.855H182.794C182.916 105.855 183.021 105.908 183.108 105.995C183.196 106.082 183.231 106.204 183.213 106.326L179.879 144.4C179.861 144.609 179.669 144.783 179.459 144.783ZM122.073 143.929H179.058L182.323 106.691H125.338L122.073 143.929Z" fill="#FCA1D5"/>
<path d="M197.023 122L197.25 139.347C197.651 150.477 198.105 163.993 199.292 175.053L201.527 195.657L207.62 196.789L208.842 182.333C209.191 178.24 209.279 174.112 209.122 170.002L208.755 160.736L208.476 134.523L212.788 159.935C213.312 163.07 213.713 166.24 214.01 169.409L217.606 195.64H222.6L223.909 169.706C224.084 166.24 224.153 162.774 224.101 159.325L223.63 122H197.023Z" fill="#FCA1D5"/>
<path d="M201.545 195.83C201.44 195.83 201.37 195.761 201.353 195.656C201.318 195.395 198.455 170.192 198.001 160.891L196.883 123.985C196.883 123.88 196.971 123.793 197.075 123.793C197.18 123.793 197.267 123.88 197.267 123.985L198.385 160.874C198.839 170.157 201.719 195.343 201.737 195.604C201.754 195.708 201.667 195.795 201.562 195.813C201.545 195.83 201.545 195.83 201.545 195.83Z" fill="#F554B1"/>
<path d="M204.32 90.9251C202.819 92.8758 201.283 94.8614 199.589 96.725C197.931 98.519 196.01 100.365 193.548 101.097C188.974 102.49 184.749 98.9544 181.589 96.2373C177.923 92.9978 174.519 89.5317 171.027 86.1702L173.96 83.0352C176.369 85.1775 178.761 87.3198 181.153 89.4098C183.37 91.2386 188.712 96.2548 191.401 96.0283C193.863 95.8019 197.861 89.4621 199.432 87.3546C199.45 87.3546 204.32 90.9251 204.32 90.9251Z" fill="#DE6A44"/>
<path d="M204.321 90.926C201.964 94.4268 199.292 99.0946 195.556 101.376L191.977 94.7752C193.374 94.1482 194.439 92.9638 195.574 91.8143C196.866 90.4383 198.158 88.9056 199.45 87.3555L204.321 90.926Z" fill="#F6AF23"/>
<path d="M173.995 83.075L171.76 80.8804C171.237 80.3753 170.451 80.2882 169.822 80.6714L168.164 81.7164C167.692 82.0125 167.396 82.5176 167.378 83.075L167.326 84.4509C167.273 85.5482 168.042 86.5236 169.141 86.7152C170.084 86.8719 171.271 86.8719 172.319 86.2623L173.995 83.075Z" fill="#DE6A44"/>
<path d="M168.932 81.9064C168.042 81.6799 166.4 80.3388 165.353 79.2415C164.323 78.1443 165.231 77.6914 165.231 77.6914C167.396 79.7118 170.381 81.0703 170.381 81.0703L168.932 81.9064Z" fill="#DE6A44"/>
<path d="M207.62 196.79L201.545 195.641L198.804 198.549L191.227 200.186L190.877 201.824H208.022L207.62 196.79Z" fill="#F554B1"/>
<path d="M204.705 61.075C206.887 58.9849 209.96 57.8528 212.962 58.0444C216.21 58.2534 219.335 60.0299 221.168 62.7122C222.722 64.9764 223.35 67.7109 223.542 70.4802C224.084 72.9012 224.346 75.4093 225.114 77.778C227.104 83.9437 232.446 88.7682 233.738 95.1255C234.716 99.8804 233.11 105.071 229.618 108.45C226.144 111.829 220.889 113.292 216.157 112.212C211.147 111.062 207.061 107.3 204.443 102.894C202.208 99.114 201.003 94.899 199.973 90.6493C199.903 90.388 199.903 89.8481 199.746 89.6217C199.624 89.4301 199.257 89.3256 199.048 89.1862C198.577 88.8727 198.158 88.4721 197.808 88.0193C197.128 87.1136 196.761 85.9641 196.831 84.8319C196.935 83.3689 197.704 82.0626 198.28 80.7041C199.537 77.6909 199.799 74.3817 200.305 71.1595C200.916 67.5541 201.964 63.705 204.705 61.075Z" fill="#301C12"/>
<path d="M195.504 114.858C195.539 114.091 195.574 113.325 195.609 112.559C195.731 109.894 195.958 107.247 196.237 104.599C196.778 99.6875 197.494 94.5669 199.153 89.9339C199.886 87.9484 200.881 86.0325 202.383 84.5346C203.081 83.8553 203.884 83.2457 204.792 82.758C204.931 82.6884 205.071 82.6187 205.211 82.549C205.717 82.3226 206.241 82.131 206.765 81.9743C208.668 81.4343 210.763 81.4169 212.753 81.8349C213.329 81.9569 213.888 82.1136 214.429 82.3226C215.407 82.671 216.349 83.1412 217.187 83.7334C218.759 84.8307 220.103 86.3286 221.151 88.0703C224.572 93.9921 224.957 102.248 224.922 109.72C224.904 112.472 224.852 115.224 224.747 117.976C224.695 119.177 224.817 120.362 224.45 121.529C224.118 122.574 223.525 123.532 222.792 124.281C221.622 125.482 220.138 126.162 218.654 126.51C216.629 126.98 214.586 126.893 212.543 126.806C209.977 126.684 207.411 126.562 204.844 126.458C203.919 126.423 202.994 126.371 202.068 126.336C200.916 126.283 199.729 126.214 198.681 125.604C197.04 124.664 196.01 122.539 195.696 120.449C195.696 120.396 195.678 120.344 195.678 120.292C195.434 118.446 195.434 116.652 195.504 114.858Z" fill="#F6AF23"/>
<path d="M205.193 82.9688C205.193 85.5466 207.271 87.6541 209.855 87.6541C212.421 87.6541 214.516 85.564 214.516 82.9688C214.516 82.7424 214.499 82.5334 214.464 82.307C213.905 82.1154 213.347 81.9412 212.77 81.8193C210.78 81.4013 208.685 81.4187 206.782 81.9587C206.241 82.1154 205.717 82.307 205.211 82.5334C205.193 82.6902 205.193 82.8295 205.193 82.9688Z" fill="white"/>
<path d="M212.98 81.8372C212.683 80.5483 212.631 79.2246 212.683 78.0576C212.771 76.0721 213.155 74.5742 213.155 74.5742L206.643 76.403C207.376 78.3712 206.939 80.2696 206.608 81.2624C206.451 81.7152 206.328 81.9765 206.328 81.9765L212.98 81.8372Z" fill="#DE6A44"/>
<path d="M206.224 82.4097C206.224 83.4373 207.777 86.2066 209.68 86.2066C211.583 86.2066 213.137 83.4547 213.137 82.4097C213.137 82.2181 213.085 82.0265 212.98 81.8349C210.763 81.4169 208.441 81.4343 206.311 81.9743C206.241 82.1136 206.224 82.253 206.224 82.4097Z" fill="#DE6A44"/>
<path d="M206.59 81.2624C206.782 81.2972 206.992 81.3146 207.201 81.3146C209.087 81.3146 211.059 79.9735 212.666 78.0576C212.753 76.0721 213.137 74.5742 213.137 74.5742L206.625 76.403C207.358 78.3712 206.922 80.2696 206.59 81.2624Z" fill="#C1725B"/>
<path d="M203.867 65.6549C202.4 69.7306 202.33 76.4362 206.293 77.8469C210.257 79.2751 216.786 74.8686 218.253 70.793C219.719 66.7174 217.676 62.276 213.713 60.8478C209.733 59.437 205.333 61.5793 203.867 65.6549Z" fill="#DE6A44"/>
<path d="M216.489 71.2815C215.634 72.013 215.337 73.0929 215.843 73.6851C216.349 74.2772 217.467 74.1727 218.322 73.4412C219.178 72.7097 219.475 71.6298 218.968 71.0377C218.462 70.4455 217.362 70.5674 216.489 71.2815Z" fill="#DE6A44"/>
<path d="M206.8 74.5732C206.8 74.5732 204.757 73.6675 204.216 72.9883C204.216 72.9883 203.919 77.2032 206.8 74.5732Z" fill="white"/>
<path d="M203.325 67.6439C204.129 64.2824 204.967 65.9022 205.333 66.9994C205.612 67.8355 206.171 70.9183 209.523 71.9285C212.893 72.9387 215.669 72.6078 218.305 70.6919C220.941 68.776 216.611 59.7539 216.611 59.7539L207.149 60.4506L202.575 65.8499L203.325 67.6439Z" fill="#301C12"/>
<path d="M222.966 70.0662C223.385 71.1809 224.066 72.0866 225.026 72.7833C224.154 71.6163 223.595 70.223 223.385 68.7773C223.263 69.2476 223.089 69.5959 222.966 70.0662Z" fill="#301C12"/>
<path d="M224.87 80.1131C225.76 81.402 227.017 82.4121 228.553 82.7779C227.209 81.7503 226.144 80.3743 225.463 78.8242C225.254 79.3119 225.062 79.6254 224.87 80.1131Z" fill="#301C12"/>
<path d="M231.067 91.5895C232.516 92.6693 233.669 94.0279 234.577 95.5954C234.158 93.7144 233.267 91.9378 232.01 90.4922C231.713 90.8579 231.382 91.2063 231.067 91.5895Z" fill="#301C12"/>
<path d="M204.967 66.1445C205.124 67.6076 205.56 69.0009 206.241 70.1679C205.962 69.3841 205.997 68.3739 206.189 67.4857C205.822 66.9457 205.351 66.667 204.967 66.1445Z" fill="#301C12"/>
<path d="M209.715 70.6367C209.052 70.6716 208.336 70.7935 207.673 70.8283C208.72 72.152 210.344 72.9358 212.02 72.9532C210.885 72.7268 209.977 71.7514 209.523 70.6367H209.715Z" fill="#301C12"/>
<path d="M200.829 69.125C200.584 70.9886 199.921 72.8 198.943 74.385C199.816 74.1063 200.567 73.3574 200.864 72.4865C201.23 71.3544 200.829 70.3094 200.829 69.125Z" fill="#301C12"/>
<path d="M212.456 58.0621C213.207 57.6789 214.097 57.557 214.935 57.6964C214.115 58.0099 213.504 58.5324 213.032 59.2813C212.84 58.8285 212.613 58.515 212.456 58.0621Z" fill="#301C12"/>
<path d="M212.893 58.3593C211.915 57.3839 210.274 57.1227 209.052 57.7671C210.239 57.9587 211.322 58.3941 212.299 59.0908C212.474 58.7947 212.718 58.6728 212.893 58.3593Z" fill="#301C12"/>
<path d="M228.204 96.1719C228.885 99.2025 229.653 102.007 230.351 105.107C230.718 106.918 231.102 108.852 230.508 110.75C229.618 113.624 226.807 114.669 224.171 115.261C218.113 116.48 212.177 117.351 206.206 118.832L205.176 115.331C209.523 113.798 213.958 112.439 218.392 111.168C220.208 110.628 221.936 110.175 223.595 109.513C223.962 109.357 224.555 109.095 224.782 108.852C224.834 108.782 224.747 108.817 224.677 108.904C224.59 108.991 224.573 109.078 224.555 109.008C224.171 106.831 223.228 104.793 222.478 102.616C221.954 101.171 221.43 99.7075 220.924 98.2445L228.204 96.1719Z" fill="#DE6A44"/>
<path d="M206.171 114.961C200.532 115.658 197.756 119.489 201.667 121.788C205.578 124.088 207.062 118.653 207.062 118.653L206.171 114.961Z" fill="#DE6A44"/>
<path d="M214.464 82.3242C222.146 84.362 224.8 85.0239 228.204 96.2231L220.941 98.2435L214.464 82.3242Z" fill="#F6AF23"/>
<path d="M220.766 98.5203C220.679 98.5203 220.609 98.468 220.592 98.381L218.427 91.3444C218.392 91.2399 218.445 91.1354 218.549 91.1006C218.654 91.0658 218.759 91.118 218.794 91.2225L220.959 98.259C220.993 98.3635 220.941 98.468 220.836 98.5029C220.801 98.5203 220.784 98.5203 220.766 98.5203Z" fill="white"/>
<path d="M195.679 111.583C195.556 111.583 195.487 111.496 195.487 111.391C196.028 99.2514 198.175 92.4761 199.886 88.9404C201.754 85.0738 203.5 84.0984 203.57 84.0636C203.657 84.0114 203.779 84.0462 203.832 84.1333C203.884 84.2204 203.849 84.3423 203.762 84.3945C203.727 84.412 202.034 85.3873 200.218 89.1668C198.542 92.6677 196.429 99.3733 195.888 111.409C195.853 111.496 195.783 111.583 195.679 111.583Z" fill="white"/>
<path d="M222.617 195.641H217.624L217.24 198.288L216.402 198.932L215.721 201.824H225.218L224.031 198.741L223.246 198.184L222.617 195.641Z" fill="#F554B1"/>
<path d="M217.415 194.245C217.327 194.245 217.24 194.176 217.223 194.071L213.417 165.507L207.393 129.21C207.376 129.105 207.446 129.001 207.55 128.983C207.655 128.966 207.76 129.035 207.777 129.14L213.801 165.455L217.607 194.019C217.624 194.123 217.554 194.228 217.449 194.228C217.432 194.245 217.415 194.245 217.415 194.245Z" fill="#F554B1"/>
<path d="M195.539 101.573C195.521 101.573 195.504 101.573 195.486 101.573C195.434 101.555 195.399 101.52 195.364 101.486L191.785 94.9368C191.768 94.8845 191.75 94.8323 191.768 94.7975C191.785 94.7452 191.82 94.7104 191.855 94.6755C193.915 93.6305 197.931 88.8582 197.966 88.806C198.035 88.7189 198.158 88.7189 198.227 88.7885C198.315 88.8582 198.315 88.9801 198.245 89.0498C198.088 89.2414 194.334 93.6828 192.187 94.9194L195.574 101.12L195.871 100.928C195.958 100.876 196.08 100.893 196.132 100.981C196.185 101.068 196.167 101.19 196.08 101.242L195.626 101.538C195.609 101.555 195.574 101.573 195.539 101.573Z" fill="white"/>
<path d="M169.595 69.1072L163.59 74.4194L161.268 73.3395L159.504 91.436H140.597L142.011 73.3395L139.497 74.4194L134.416 69.1072C134.416 69.1072 139.532 64.091 141.47 62.3842C143.407 60.6773 149.85 58.7266 149.85 58.7266L149.867 58.744C150.862 59.6497 152.835 59.6148 152.835 59.6148C152.835 59.6148 154.808 59.6322 155.96 58.744L155.978 58.7266C155.978 58.7266 162.071 60.6773 163.712 62.3842C165.37 64.091 169.595 69.1072 169.595 69.1072Z" fill="#F6AF23"/>
<path d="M155.96 59.1602C155.803 61.0413 154.284 62.5565 152.591 62.5565C150.897 62.5565 149.658 61.0413 149.815 59.1602C149.832 59.0209 149.85 58.8815 149.867 58.7422C150.862 59.6479 152.835 59.613 152.835 59.613C152.835 59.613 154.808 59.6305 155.96 58.7422C155.978 58.8815 155.978 59.0209 155.96 59.1602Z" fill="#E4921C"/>
<path d="M142.011 73.3381C142.325 69.6805 142.709 65.483 141.906 63.2188C141.906 63.2188 143.338 63.8109 141.941 74.1393L142.011 73.3381Z" fill="#E4921C"/>
<path d="M161.268 73.3225C161.582 69.6649 161.948 65.4674 163.153 63.2031C163.153 63.2031 161.617 63.7953 161.198 74.1237L161.268 73.3225Z" fill="#E4921C"/>
<path d="M126.56 62.5744H119.157C117.429 62.5744 116.067 61.094 116.224 59.3871L116.87 51.9674C117.01 50.4521 118.284 49.2852 119.803 49.2852H127.206C128.934 49.2852 130.296 50.7656 130.139 52.4725L129.493 59.8922C129.353 61.4075 128.079 62.5744 126.56 62.5744Z" fill="#F554B1"/>
<path d="M126.368 56.3556H119.995C119.768 56.3556 119.576 56.164 119.576 55.9375C119.576 55.7111 119.768 55.5195 119.995 55.5195H126.368C126.595 55.5195 126.787 55.7111 126.787 55.9375C126.787 56.164 126.595 56.3556 126.368 56.3556Z" fill="white"/>
<path d="M122.894 59.5421C122.876 59.5421 122.876 59.5421 122.859 59.5421C122.632 59.5247 122.457 59.3157 122.475 59.0893L123.033 52.732C123.051 52.5056 123.26 52.3314 123.487 52.3489C123.714 52.3663 123.889 52.5753 123.871 52.8017L123.313 59.159C123.313 59.368 123.121 59.5421 122.894 59.5421Z" fill="white"/>
<g opacity="0.5">
<path d="M87.8542 133.513L82.442 129.977C81.6913 129.611 80.8882 129.35 80.0502 129.193C80.0328 129.193 77.2219 128.601 74.7952 123.411C72.9969 119.492 70.5702 114.929 68.8592 114.441C68.8592 114.441 68.8592 114.441 68.8418 114.441C68.8069 114.424 68.7545 114.424 68.7196 114.424C68.6672 114.424 68.6148 114.406 68.5624 114.406C68.545 114.406 68.5275 114.406 68.5101 114.406C67.6895 114.528 66.4499 117.385 65.7167 119.283C65.3151 120.311 65.3675 121.408 65.8563 122.314C66.7816 124.055 68.2307 127.121 68.0561 129.089C67.8117 131.98 67.5149 135.22 67.5149 135.22H69.1909C69.1909 135.22 69.8544 129.298 70.7797 127.399C70.8844 127.173 71.1987 127.156 71.3209 127.365L74.6904 133.722C75.1793 134.662 76.1569 135.22 77.2568 135.22H87.1559C87.6098 135.22 88.0463 134.924 88.1685 134.488C88.2907 134.088 88.151 133.704 87.8542 133.513Z" fill="#FCA1D5"/>
<path d="M74.8126 123.411C74.6555 123.899 74.2364 124.212 73.4857 124.212C69.2084 124.212 67.2879 114.668 68.5275 114.406C68.5449 114.406 68.5624 114.406 68.5798 114.406C68.6322 114.406 68.6846 114.406 68.737 114.424C68.7719 114.424 68.8243 114.441 68.8592 114.441H68.8766C70.5701 114.929 72.9969 119.492 74.8126 123.411Z" fill="#F554B1"/>
</g>
<g opacity="0.5">
<path d="M164.41 116.898C163.956 120.05 162.437 130.814 162.193 136.719H154.057L152.014 126.355L148.139 136.719H140.02C140.649 131.981 141.015 124.143 141.19 119.58C141.207 119.284 141.207 119.023 141.225 118.762C141.242 117.995 141.277 117.351 141.277 116.88C141.295 116.393 141.714 115.992 142.203 115.992H163.642C164.131 116.01 164.48 116.41 164.41 116.898Z" fill="#FCA1D5"/>
<path d="M141.19 119.596C141.207 119.3 141.207 119.039 141.225 118.777C142.953 118.882 148.942 119.213 152.276 119.195C156.082 119.161 147.65 120.118 141.19 119.596Z" fill="#F554B1"/>
<path d="M152.014 126.374C152.014 126.34 151.997 126.305 151.997 126.27C151.875 125.051 152.852 123.901 153.743 135.153L152.014 126.374Z" fill="#F554B1"/>
</g>
<g opacity="0.5">
<path d="M83.3323 89.3136H77.2393C76.6457 89.3136 76.1917 88.8259 76.2441 88.2337L76.9425 80.2392C77.0123 79.4729 77.6757 78.8633 78.4439 78.8633H83.9608C84.729 78.8633 85.2877 79.4729 85.2178 80.2392L84.5195 88.2337C84.4671 88.8259 83.9259 89.3136 83.3323 89.3136Z" fill="#FCA1D5"/>
<path d="M80.05 74.2635L80.504 69.0383C80.5389 68.6377 80.8881 68.3242 81.2722 68.3242C81.5689 68.3242 81.8134 68.4984 81.9007 68.7771L83.5767 74.2635H80.05Z" fill="#F554B1"/>
<path d="M82.8786 79.5927H79.3694C78.9678 79.5927 78.6885 79.2792 78.7234 78.8786L79.09 74.6985C79.125 74.2979 79.4741 73.9844 79.8757 73.9844H83.3849C83.7864 73.9844 84.0657 74.2979 84.0308 74.6985L83.6642 78.8786C83.6293 79.2618 83.2801 79.5927 82.8786 79.5927Z" fill="#FCA1D5"/>
<path d="M82.7737 78.375H78.7756L78.7407 78.8627H82.7387C82.8784 78.8627 82.9832 78.7582 83.0006 78.6188C83.0006 78.4795 82.9133 78.375 82.7737 78.375Z" fill="#F554B1"/>
</g>
<path d="M64.5118 151.349H41.7632L42.7583 139.976C43.2995 133.74 48.8339 128.672 55.0841 128.672C58.1219 128.672 60.8804 129.856 62.8358 131.999C64.8086 134.158 65.7513 137.015 65.4895 140.063L64.5118 151.349ZM42.6361 150.548H63.7785L64.7038 139.976C64.9482 137.154 64.0753 134.507 62.2596 132.521C60.4439 130.553 57.895 129.456 55.0841 129.456C49.2355 129.456 44.0677 134.211 43.544 140.028L42.6361 150.548Z" fill="#F554B1"/>
<path d="M73.2936 146.836H35.3385L26.0156 207.395H72.0017L73.2936 146.836Z" fill="#F554B1"/>
<path d="M63.4469 146.836H25.4919L16.1689 207.395H62.155L63.4469 146.836Z" fill="#FCA1D5"/>
<path d="M34.6851 156.133C36.1482 156.048 37.2906 155.232 37.2367 154.31C37.1827 153.388 35.9529 152.71 34.4898 152.795C33.0267 152.88 31.8843 153.697 31.9383 154.618C31.9922 155.54 33.222 156.219 34.6851 156.133Z" fill="#D83B95"/>
<path d="M56.6304 156.133C58.0936 156.048 59.2359 155.232 59.182 154.31C59.128 153.388 57.8982 152.71 56.4351 152.795C54.972 152.88 53.8296 153.697 53.8836 154.618C53.9375 155.54 55.1673 156.219 56.6304 156.133Z" fill="#D83B95"/>
<path d="M62.155 207.394L65.6642 202.727L72.0017 207.394H62.155Z" fill="#F554B1"/>
<path d="M65.6641 202.73L67.1655 150.305L66.6941 204.681L65.6641 202.73Z" fill="#D83B95"/>
<path d="M56.4286 156.154C56.4111 156.154 56.4111 156.154 56.3937 156.154C56.1667 156.137 56.0096 155.945 56.027 155.719L57.4063 139.973C57.6507 137.152 56.7777 134.505 54.962 132.519C53.1464 130.551 50.5974 129.454 47.7865 129.454C41.9379 129.454 36.7702 134.208 36.2464 140.026L34.8672 155.771C34.8497 155.997 34.6577 156.154 34.4307 156.137C34.2037 156.119 34.0466 155.928 34.0641 155.701L35.4433 139.956C35.9845 133.721 41.5189 128.652 47.7691 128.652C50.8069 128.652 53.5654 129.837 55.5207 131.979C57.4936 134.139 58.4363 136.995 58.1744 140.043L56.7952 155.788C56.7952 155.997 56.6206 156.154 56.4286 156.154Z" fill="#F554B1"/>
<path d="M57.7206 203.129H22.716C22.489 203.129 22.3145 202.955 22.3145 202.729C22.3145 202.502 22.489 202.328 22.716 202.328H57.738C57.965 202.328 58.1396 202.502 58.1396 202.729C58.1396 202.955 57.9475 203.129 57.7206 203.129Z" fill="#D83B95"/>
<path d="M58.1397 192.801H24.0954C23.8684 192.801 23.6938 192.627 23.6938 192.401C23.6938 192.174 23.8684 192 24.0954 192H58.1397C58.3667 192 58.5413 192.174 58.5413 192.401C58.5413 192.627 58.3667 192.801 58.1397 192.801Z" fill="#D83B95"/>
<path d="M58.5586 182.473H25.492C25.2825 182.473 25.1079 182.299 25.1079 182.09C25.1079 181.881 25.2825 181.707 25.492 181.707H58.5586C58.7682 181.707 58.9427 181.881 58.9427 182.09C58.9427 182.299 58.7682 182.473 58.5586 182.473Z" fill="#D83B95"/>
<path d="M58.9774 172.145H26.8885C26.679 172.145 26.5044 171.971 26.5044 171.762C26.5044 171.553 26.679 171.379 26.8885 171.379H58.9774C59.187 171.379 59.3615 171.553 59.3615 171.762C59.3615 171.971 59.187 172.145 58.9774 172.145Z" fill="#D83B95"/>
<path d="M59.3965 161.817H28.2852C28.0757 161.817 27.9011 161.643 27.9011 161.434C27.9011 161.225 28.0757 161.051 28.2852 161.051H59.414C59.6235 161.051 59.798 161.225 59.798 161.434C59.7806 161.643 59.606 161.817 59.3965 161.817Z" fill="#D83B95"/>
</svg>
