<svg width="90" height="90" viewBox="0 0 90 90" fill="none" xmlns="http://www.w3.org/2000/svg">
<g clip-path="url(#clip0_9932_7385)">
<mask id="mask0_9932_7385" style="mask-type:luminance" maskUnits="userSpaceOnUse" x="0" y="0" width="90" height="90">
<path d="M0 0H90V90H0V0Z" fill="white"/>
</mask>
<g mask="url(#mask0_9932_7385)">
<path d="M0.00755626 84.3114L3.70782 23.6962C3.77093 22.6619 4.22622 21.6908 4.9808 20.9807C5.7354 20.2706 6.73245 19.8752 7.76862 19.875H53.5748C54.6111 19.8752 55.6081 20.2706 56.3627 20.9807C57.1174 21.6907 57.5726 22.6619 57.6358 23.6962L61.3354 84.3114C61.3692 84.8656 61.2893 85.4209 61.1005 85.9431C60.9116 86.4653 60.6179 86.9432 60.2374 87.3476C59.8568 87.7519 59.3977 88.0743 58.8879 88.2944C58.3783 88.5148 57.829 88.6283 57.2737 88.6283H4.06908C3.51384 88.6283 2.96448 88.5148 2.45481 88.2944C1.94514 88.0741 1.48593 87.7519 1.10547 87.3475C0.725003 86.9432 0.431326 86.4651 0.242509 85.9431C0.0536934 85.4209 -0.0262648 84.8656 0.00755626 84.3114Z" fill="#FFC53D"/>
<path d="M42.5517 28.0325C42.2252 28.0325 41.9019 27.9683 41.6 27.8433C41.2983 27.7184 41.0244 27.5352 40.7934 27.3042C40.5625 27.0735 40.3792 26.7993 40.2543 26.4977C40.1294 26.196 40.0652 25.8725 40.0652 25.546V12.424C40.0544 9.93965 39.0597 7.56077 37.2993 5.80789C35.5387 4.05502 33.1555 3.07092 30.6709 3.07092C28.1866 3.07092 25.8034 4.05502 24.0428 5.80789C22.2824 7.56077 21.2877 9.93965 21.2769 12.424V25.546C21.2714 26.2019 21.0069 26.8289 20.5413 27.2907C20.0754 27.7524 19.4462 28.0115 18.7904 28.0115C18.1345 28.0115 17.5052 27.7524 17.0395 27.2907C16.5737 26.8289 16.3093 26.2019 16.3037 25.546V12.424C16.3172 8.62236 17.8368 4.98101 20.5298 2.29759C23.2227 -0.385836 26.8694 -1.89258 30.6709 -1.89258C34.4727 -1.89258 38.1194 -0.385836 40.8123 2.29759C43.5053 4.98101 45.0249 8.62236 45.0384 12.424V25.546C45.0384 25.8725 44.9741 26.196 44.849 26.4977C44.7241 26.7993 44.5409 27.0735 44.3101 27.3042C44.0792 27.5352 43.805 27.7184 43.5033 27.8433C43.2017 27.9683 42.8782 28.0325 42.5517 28.0325Z" fill="black"/>
<path d="M89.9998 54.2321C90.0119 58.3354 88.5354 62.3038 85.8444 65.4016C85.8165 65.4155 85.8024 65.4436 85.7886 65.4574L84.1849 67.061L61.7899 89.4563L38.7254 66.3918C36.9702 64.9046 35.5336 63.078 34.5019 61.0219C33.4701 58.9657 32.8644 56.7224 32.7211 54.4263C32.5779 52.1302 32.9001 49.8289 33.6681 47.6605C34.4364 45.492 35.6346 43.501 37.1913 41.8072C38.7479 40.1132 40.6309 38.7514 42.7268 37.8031C44.8229 36.8551 47.0889 36.3401 49.3888 36.2893C51.6888 36.2386 53.9752 36.6531 56.1111 37.5079C58.2468 38.3627 60.1879 39.6402 61.8178 41.2638C64.2967 39.1373 67.3337 37.7666 70.5683 37.3144C73.8029 36.8623 77.0992 37.3477 80.0664 38.713C83.0333 40.0783 85.5463 42.2662 87.307 45.017C89.0678 47.7677 90.0024 50.966 89.9998 54.2321Z" fill="#F23030"/>
</g>
</g>
<defs>
<clipPath id="clip0_9932_7385">
<rect width="90" height="90" fill="white"/>
</clipPath>
</defs>
</svg>
