<svg width="25" height="24" viewBox="0 0 25 24" fill="none" xmlns="http://www.w3.org/2000/svg">
<g id="Icon/Category/Woman">
<path id="Vector" d="M12.5 0.9375C11.1875 0.9375 6.125 1.77581 6.125 8.28919C6.125 13.7959 6.875 18.5625 6.875 18.5625H17.9375C17.9375 18.5625 18.875 13.7959 18.875 8.28919C18.875 1.77581 13.8125 0.9375 12.5 0.9375Z" fill="url(#paint0_linear_10094_1369)"/>
<path id="Vector_2" d="M14.375 16.5L14.1875 13.875H10.8125L10.625 16.5C5.39356 16.5 5.375 23.625 5.375 23.625H19.625C19.625 23.625 19.6064 16.5 14.375 16.5Z" fill="url(#paint1_linear_10094_1369)"/>
<path id="Vector_3" d="M14.3751 16.5L14.1876 13.875H10.8126L10.7983 14.0734L14.9376 18.1403L14.3751 16.5Z" fill="url(#paint2_linear_10094_1369)"/>
<path id="Vector_4" d="M8.47727 8.33311C8.71389 9.14555 8.43995 9.93492 7.86564 10.096C7.29133 10.2572 6.63395 9.72924 6.39733 8.9168C6.1607 8.10436 6.43464 7.31499 7.00895 7.15392C7.58345 6.99286 8.24083 7.52067 8.47727 8.33311Z" fill="url(#paint3_linear_10094_1369)"/>
<path id="Vector_5" d="M16.5226 8.33311C16.2859 9.14555 16.5599 9.93492 17.1342 10.096C17.7085 10.2572 18.3659 9.72924 18.6025 8.9168C18.8391 8.10436 18.5652 7.31499 17.9909 7.15392C17.4164 6.99286 16.759 7.52067 16.5226 8.33311Z" fill="url(#paint4_linear_10094_1369)"/>
<path id="Vector_6" d="M8.43507 8.45711C8.54925 8.8608 8.36325 9.26299 8.01938 9.3558C7.6755 9.44861 7.30407 9.19642 7.18988 8.79292C7.07569 8.38924 7.26169 7.98705 7.60557 7.89424C7.94944 7.80142 8.32069 8.05342 8.43507 8.45711Z" fill="url(#paint5_linear_10094_1369)"/>
<path id="Vector_7" d="M16.5649 8.45711C16.4507 8.8608 16.6367 9.26299 16.9806 9.3558C17.3244 9.44842 17.6959 9.19642 17.8101 8.79292C17.9243 8.38924 17.7383 7.98705 17.3944 7.89424C17.0505 7.80142 16.6793 8.05342 16.5649 8.45711Z" fill="url(#paint6_linear_10094_1369)"/>
<path id="Vector_8" d="M12.5 14.625C10.4716 14.625 7.625 11.6812 7.625 9V6.375C7.625 3.69375 9.81875 1.5 12.5 1.5C15.1813 1.5 17.375 3.69375 17.375 6.375V9C17.375 11.6812 14.5231 14.625 12.5 14.625Z" fill="url(#paint7_linear_10094_1369)"/>
<path id="Vector_9" d="M10.6743 9H10.5755C10.3964 9 10.25 8.85356 10.25 8.67431V8.2005C10.25 8.02144 10.3964 7.875 10.5757 7.875H10.6745C10.8536 7.875 11 8.02144 11 8.20069V8.6745C11 8.85356 10.8536 9 10.6743 9Z" fill="#51251F"/>
<path id="Vector_10" d="M14.4243 9H14.3255C14.1464 9 14 8.85356 14 8.67431V8.2005C14 8.02144 14.1464 7.875 14.3257 7.875H14.4245C14.6036 7.875 14.75 8.02144 14.75 8.20069V8.6745C14.75 8.85356 14.6036 9 14.4243 9Z" fill="#51251F"/>
<path id="Vector_11" d="M10.0624 7.35732C9.98701 7.35732 9.91595 7.31157 9.88726 7.23694C9.85013 7.14019 9.89851 7.03182 9.99507 6.99469C10.3586 6.855 10.926 6.85613 11.2603 6.99694C11.3558 7.03707 11.4006 7.14713 11.3603 7.24257C11.3201 7.338 11.2103 7.383 11.1146 7.3425C10.866 7.23769 10.4059 7.23863 10.1299 7.34475C10.1076 7.35338 10.0849 7.35732 10.0624 7.35732Z" fill="#7A5954"/>
<path id="Vector_12" d="M13.8124 7.35732C13.737 7.35732 13.6659 7.31157 13.6373 7.23694C13.6001 7.14019 13.6485 7.03182 13.7451 6.99469C14.1086 6.855 14.676 6.85613 15.0103 6.99694C15.1058 7.03707 15.1506 7.14713 15.1103 7.24257C15.0699 7.338 14.9604 7.383 14.8646 7.3425C14.616 7.23769 14.1559 7.23863 13.8799 7.34475C13.8576 7.35338 13.8349 7.35732 13.8124 7.35732Z" fill="#7A5954"/>
<path id="Vector_13" d="M12.5 10.5C12.3965 10.5 12.3125 10.416 12.3125 10.3125V9.1875C12.3125 9.084 12.3965 9 12.5 9C12.6035 9 12.6875 9.084 12.6875 9.1875V10.3125C12.6875 10.416 12.6035 10.5 12.5 10.5Z" fill="url(#paint8_linear_10094_1369)"/>
<path id="Vector_14" d="M12.5 11.438C12.5 11.438 12.026 10.9273 11.375 11.6255C11.375 11.6255 11.5859 12.3755 12.5 12.3755C13.4141 12.3755 13.625 11.6255 13.625 11.6255C12.974 10.9273 12.5 11.438 12.5 11.438Z" fill="url(#paint9_linear_10094_1369)"/>
<path id="Vector_15" d="M12.5 0.9375C11.1875 0.9375 6.125 1.77581 6.125 8.28919C6.125 8.48775 6.12631 8.68519 6.12819 8.88169C9.48781 8.19581 13.9348 5.60156 15.3125 4.6875C16.0981 6.92831 17.2158 8.31919 18.7854 8.69287L18.8727 8.71781C18.8741 8.5755 18.875 8.43262 18.875 8.28919C18.875 1.77581 13.8125 0.9375 12.5 0.9375Z" fill="url(#paint10_linear_10094_1369)"/>
<path id="Vector_16" d="M14.375 16.5L13.25 18.1875L12.5 19.5L11.75 18.1875L10.625 16.5C5.39356 16.5 5.375 23.625 5.375 23.625H19.625C19.625 23.625 19.6064 16.5 14.375 16.5Z" fill="url(#paint11_linear_10094_1369)"/>
<path id="Vector_17" d="M9.3125 16.6856L9.30912 16.668C9.30912 16.668 9.27744 16.6768 9.24144 16.6873C8.63112 16.8663 8.11719 17.1626 7.68425 17.5348L7.68406 17.5355C7.68312 17.5365 7.682 17.5372 7.68106 17.538C7.59031 17.616 7.50331 17.6972 7.41969 17.7815C5.38437 19.8326 5.375 23.6231 5.375 23.6231H8.075H10.625L9.3125 16.6856Z" fill="url(#paint12_linear_10094_1369)"/>
<path id="Vector_18" d="M9.30912 16.668C9.30912 16.668 9.27744 16.6768 9.24144 16.6873C8.63112 16.8663 8.11719 17.1626 7.68425 17.5348L7.0625 20.8106L8.5625 21.5606L7.625 22.4981L8.075 23.6231H10.625L9.30912 16.668Z" fill="url(#paint13_linear_10094_1369)"/>
<path id="Vector_19" d="M15.6875 16.6856L15.6909 16.668C15.6909 16.668 15.7226 16.6768 15.7586 16.6873C16.3689 16.8663 16.8828 17.1626 17.3157 17.5348L17.3159 17.5355C17.3169 17.5365 17.318 17.5372 17.3189 17.538C17.4097 17.616 17.4967 17.6972 17.5803 17.7815C19.6156 19.8326 19.625 23.6231 19.625 23.6231H16.925H14.375L15.6875 16.6856Z" fill="url(#paint14_linear_10094_1369)"/>
<path id="Vector_20" d="M15.6909 16.668C15.6909 16.668 15.7226 16.6768 15.7586 16.6873C16.3689 16.8663 16.8828 17.1626 17.3157 17.5348L17.9375 20.8106L16.4375 21.5606L17.375 22.4981L16.925 23.6231H14.375L15.6909 16.668Z" fill="url(#paint15_linear_10094_1369)"/>
<path id="Vector_21" d="M10.625 15L11.75 18.1875L8.75 19.5L9.3125 16.5L10.625 15Z" fill="url(#paint16_linear_10094_1369)"/>
<path id="Vector_22" d="M14.375 15L13.25 18.1875L16.25 19.5L15.6875 16.5L14.375 15Z" fill="url(#paint17_linear_10094_1369)"/>
</g>
<defs>
<linearGradient id="paint0_linear_10094_1369" x1="12.5" y1="-1.33031" x2="12.5" y2="18.5625" gradientUnits="userSpaceOnUse">
<stop stop-color="#A87063"/>
<stop offset="1" stop-color="#8A563E"/>
</linearGradient>
<linearGradient id="paint1_linear_10094_1369" x1="12.5" y1="13.875" x2="12.5" y2="49.0877" gradientUnits="userSpaceOnUse">
<stop stop-color="#F9DDD1"/>
<stop offset="0.5137" stop-color="#F8DBCE"/>
<stop offset="0.8222" stop-color="#F6D3C6"/>
<stop offset="1" stop-color="#F4CABD"/>
</linearGradient>
<linearGradient id="paint2_linear_10094_1369" x1="11.6314" y1="13.0361" x2="14.5682" y2="16.2334" gradientUnits="userSpaceOnUse">
<stop stop-color="#EEAE9A"/>
<stop offset="0.3851" stop-color="#EFB19D"/>
<stop offset="0.6587" stop-color="#F1B9A6"/>
<stop offset="0.8972" stop-color="#F5C7B6"/>
<stop offset="1" stop-color="#F7D0BF"/>
</linearGradient>
<linearGradient id="paint3_linear_10094_1369" x1="6.31239" y1="8.62505" x2="8.56239" y2="8.62505" gradientUnits="userSpaceOnUse">
<stop stop-color="#F9DDD1"/>
<stop offset="0.5137" stop-color="#F8DBCE"/>
<stop offset="0.8222" stop-color="#F6D3C6"/>
<stop offset="1" stop-color="#F4CABD"/>
</linearGradient>
<linearGradient id="paint4_linear_10094_1369" x1="18.6874" y1="8.62505" x2="16.4374" y2="8.62505" gradientUnits="userSpaceOnUse">
<stop stop-color="#F9DDD1"/>
<stop offset="0.5137" stop-color="#F8DBCE"/>
<stop offset="0.8222" stop-color="#F6D3C6"/>
<stop offset="1" stop-color="#F4CABD"/>
</linearGradient>
<linearGradient id="paint5_linear_10094_1369" x1="7.17396" y1="8.8028" x2="8.41734" y2="8.45971" gradientUnits="userSpaceOnUse">
<stop stop-color="#F7D0BF"/>
<stop offset="1" stop-color="#F1BEAE"/>
</linearGradient>
<linearGradient id="paint6_linear_10094_1369" x1="17.8349" y1="8.6929" x2="16.5917" y2="8.34986" gradientUnits="userSpaceOnUse">
<stop stop-color="#F7D0BF"/>
<stop offset="1" stop-color="#F1BEAE"/>
</linearGradient>
<linearGradient id="paint7_linear_10094_1369" x1="8.36469" y1="3.62437" x2="16.6342" y2="11.8941" gradientUnits="userSpaceOnUse">
<stop stop-color="#F9DDD1"/>
<stop offset="0.5137" stop-color="#F8DBCE"/>
<stop offset="0.8222" stop-color="#F6D3C6"/>
<stop offset="1" stop-color="#F4CABD"/>
</linearGradient>
<linearGradient id="paint8_linear_10094_1369" x1="12.5" y1="9" x2="12.5" y2="10.5" gradientUnits="userSpaceOnUse">
<stop stop-color="#F7D0BF"/>
<stop offset="1" stop-color="#EEAE9A"/>
</linearGradient>
<linearGradient id="paint9_linear_10094_1369" x1="12.5" y1="11.2578" x2="12.5" y2="12.3755" gradientUnits="userSpaceOnUse">
<stop stop-color="#E15C63"/>
<stop offset="0.4062" stop-color="#DE585F"/>
<stop offset="0.8264" stop-color="#D44B53"/>
<stop offset="1" stop-color="#CE444C"/>
</linearGradient>
<linearGradient id="paint10_linear_10094_1369" x1="8.08081" y1="1.7535" x2="14.7886" y2="9.681" gradientUnits="userSpaceOnUse">
<stop stop-color="#AC766A"/>
<stop offset="1" stop-color="#93634D"/>
</linearGradient>
<linearGradient id="paint11_linear_10094_1369" x1="12.5" y1="16.5" x2="12.5" y2="23.625" gradientUnits="userSpaceOnUse">
<stop stop-color="#FFE3FF"/>
<stop offset="1" stop-color="#FFC8FF"/>
</linearGradient>
<linearGradient id="paint12_linear_10094_1369" x1="8" y1="16.668" x2="8" y2="23.6231" gradientUnits="userSpaceOnUse">
<stop stop-color="#198DC4"/>
<stop offset="1" stop-color="#12639B"/>
</linearGradient>
<linearGradient id="paint13_linear_10094_1369" x1="8.84375" y1="16.668" x2="8.84375" y2="23.6231" gradientUnits="userSpaceOnUse">
<stop stop-color="#3779A1"/>
<stop offset="1" stop-color="#174F71"/>
</linearGradient>
<linearGradient id="paint14_linear_10094_1369" x1="17" y1="16.668" x2="17" y2="23.6231" gradientUnits="userSpaceOnUse">
<stop stop-color="#198DC4"/>
<stop offset="1" stop-color="#12639B"/>
</linearGradient>
<linearGradient id="paint15_linear_10094_1369" x1="16.1562" y1="16.668" x2="16.1562" y2="23.6231" gradientUnits="userSpaceOnUse">
<stop stop-color="#3779A1"/>
<stop offset="1" stop-color="#174F71"/>
</linearGradient>
<linearGradient id="paint16_linear_10094_1369" x1="10.25" y1="14.7413" x2="10.25" y2="20.1568" gradientUnits="userSpaceOnUse">
<stop stop-color="#FFEDFF"/>
<stop offset="1" stop-color="#FFE1FF"/>
</linearGradient>
<linearGradient id="paint17_linear_10094_1369" x1="14.75" y1="14.7413" x2="14.75" y2="20.1568" gradientUnits="userSpaceOnUse">
<stop stop-color="#FFEDFF"/>
<stop offset="1" stop-color="#FFE1FF"/>
</linearGradient>
</defs>
</svg>
